<?xml version="1.0" encoding="UTF-8"?><svg id="Layer_1" xmlns="http://www.w3.org/2000/svg" xmlns:xlink="http://www.w3.org/1999/xlink" viewBox="0 0 216.36 209.71"><defs><clipPath id="clippath"><path d="m215.68,23v142.17c0,10.23-74,18.83-75.33,37.97-.34,4.89-7.86,5.86-12.76,5.86h-27.95c-4.36,0-85.92,2.13-88.96-1C-3.9,193.02.68,175.52.68,165.17V23C.68,10.3,10.98,0,23.68,0h169C205.38,0,215.68,10.3,215.68,23Z" style="fill:none;"/></clipPath><radialGradient id="radial-gradient" cx="335.84" cy="104.85" fx="335.84" fy="104.85" r="106.21" gradientTransform="translate(444.36) rotate(-180) scale(1 -1)" gradientUnits="userSpaceOnUse"><stop offset="0" stop-color="#602b49"/><stop offset=".51" stop-color="#7d1c38"/><stop offset="1" stop-color="#8e1616"/></radialGradient></defs><g style="clip-path:url(#clippath);"><path d="m171.38,209.56c-18.12,0-38.74-.41-48.65-.6-3.25-.06-5.4-.11-6.02-.11h-27.95c-3.67,0-12.25-.56-12.61-5.72-.77-11.11-25.12-18.5-46.61-25.01-15.41-4.68-28.72-8.71-28.72-12.95V23C.83,10.4,11.08.15,23.68.15h169c12.6,0,22.85,10.25,22.85,22.85v142.17c0,1.84.15,3.92.3,6.12.72,10.26,1.7,24.32-10.26,36.6-.74.76-7.27,1.66-34.19,1.66h0Z" style="fill:url(#radial-gradient);"/><path d="m192.68.3c12.52,0,22.7,10.18,22.7,22.7v142.17c0,1.84.15,3.93.3,6.14.71,10.24,1.69,24.26-10.21,36.49-.59.6-5.8,1.62-34.08,1.62-18.12,0-38.73-.41-48.64-.6-3.25-.06-5.4-.11-6.02-.11h-27.95c-3.63,0-12.11-.54-12.46-5.58-.78-11.21-25.18-18.62-46.71-25.15-14.72-4.46-28.62-8.68-28.62-12.8V23C.98,10.48,11.17.3,23.68.3h169m0-.3H23.68C10.98,0,.68,10.3.68,23v142.17c0,10.23,74,18.83,75.33,37.97.34,4.89,7.86,5.86,12.76,5.86h27.95c2.52,0,30.67.71,54.66.71,17.63,0,33.01-.38,34.3-1.71,14.58-14.98,10-32.48,10-42.83V23c0-12.7-10.3-23-23-23h0Z"/></g></svg>