<?xml version="1.0" encoding="utf-8"?>
<!-- Generator: Adobe Illustrator 27.5.0, SVG Export Plug-In . SVG Version: 6.00 Build 0)  -->
<svg version="1.2" baseProfile="tiny" id="Graphic_Element"
	 xmlns="http://www.w3.org/2000/svg" xmlns:xlink="http://www.w3.org/1999/xlink" x="0px" y="0px" viewBox="0 0 1200 1200"
	 overflow="visible" xml:space="preserve">
<path d="M583,1029.6c-0.9-0.5-2-0.6-2.9-0.1c-1.2,0.5-0.8,0.8,0.9,0.9C582.7,1030.4,583.6,1030.1,583,1029.6z"/>
<path d="M601.2,1028.1c1.3-3.5-0.4-4.3-3.9-1.9c-3.2,2.2-2.8,4.2,1,4.2C599.6,1030.3,600.8,1029.4,601.2,1028.1L601.2,1028.1z"/>
<path d="M694.7,1027.4c4,0,7.9,0.3,11.8,0.9c5,1,13.5-2.7,12-5.2c-0.4-0.6-5.5-1.1-11.5-1c-7,0.1-10.8-0.5-10.8-1.6
	c0-0.9-3.6-2.5-8.1-3.5c-10.6-2.4-25.8-9.6-35.5-17c-6.8-5.2-8.3-7.3-11.8-17c-6.3-17.8-8.6-36.5-8.9-72.8
	c-0.7-82.7-1.2-76.9,7.5-96c3.5-7.7,3.7-9.5,2.8-22.1c-1-13.7-1-13.7,7.4-38.7l8.4-25l-9.3-10c-16.3-17.5-29.7-41.1-34.9-61.7
	c-1.7-6.9-2.2-7.3-5.9-6.6c-2.2,0.5-5,0.2-6.3-0.6c-1.8-1.1-2.5,0.8-3.9,11.1c-0.9,6.9-2.9,17.7-4.3,23.9c-3.1,13.5-2.5,34.2,1.5,51
	c2.2,9.2,2.3,12.7,0.7,25.6c-1,8.2-1.4,17.8-0.8,21.3c0.9,5.8,7.2,28,10.1,35.3s4.2,12.8,3.3,13.6c-1.5,1.5-3.4,1-3.4-0.8
	c-0.4-2.2-1.1-4.4-2.1-6.5c-1.1-2.6-3.3-8.9-4.8-13.9c-2.2-7.4-2.9-8.5-3.9-6.1c-0.8,2.7-1.3,5.5-1.3,8.4c-0.1,2.9-1.4,11.7-3,19.4
	c-6.3,30.7-5.6,56.9,2.2,74.4c3,6.8,4.3,8.3,6.5,7.6c2.5-0.8,2.9,0.9,4.6,16.9c1,9.8,1.6,18,1.2,18.4c-1.3,1.3-4-5.5-5.4-13.6
	c-1.2-6.8-1.4-5.7-0.8,7.5c0.3,10.3,2.1,20.6,5.5,30.4c4,12.6,5,14.3,6.4,11.8c1.8-3.1,1.6-3.7,5.1,13.5c0.5,2.4,1.8,4.7,3,5.1
	c3.1,1.2,2.5,3.5-0.9,3.5c-2-0.3-3.8-1.3-5-3c-1.9-2.8-2.2-2.5-4.1,4.2c-2.3,8.2-2.1,15.8,0.5,17.4c1,0.6,5.2,1.1,9.4,1.1
	c4.9,0,6.9-0.5,5.5-1.3c-1.1-0.6-1.5-1.9-1-3c1.4-2.2,8.5-2.2,8.5,0c0,1.2,5.2,1.5,17.1,1.1c9.4-0.3,17.2,0,17.4,0.8
	c0.6,3,4.8,4.1,13.5,3.3c5-0.4,12.2-0.8,16-0.9L694.7,1027.4z"/>
<path d="M673.7,1018.4c-2.7-1.2-5-2.8-5-3.6c0-1.6,7.7-0.1,9.7,1.9C681.2,1019.5,678.4,1020.5,673.7,1018.4L673.7,1018.4z"/>
<path d="M622.3,1012.3c-1.4-2.3,2.1-10,3.8-8.2c1,1,1,2.9,0,5.6C624.5,1014,623.7,1014.6,622.3,1012.3L622.3,1012.3z"/>
<path d="M629.2,994.2c-2-3.8-2.1-6.3-0.2-6.3c1.7,0,3.9,7.3,2.6,8.6C631.3,996.9,630.2,995.9,629.2,994.2L629.2,994.2z"/>
<path d="M623,990.5c0-3.8,0.4-4.4,1.5-2.7c1.9,3,1.9,7.6,0,7.6C623.7,995.5,623.1,993.2,623,990.5L623,990.5z"/>
<path d="M637,990.6c-2.5-2.5-2.3-4.3,0.5-4.3c1.3,0,2.3,1.3,2.3,3C639.8,992.9,639.5,993,637,990.6L637,990.6z"/>
<path d="M622.3,977.2c-0.6-1.8-0.7-3.6-0.3-4s1.2,0.7,1.8,2.5s0.7,3.6,0.3,4S622.8,979,622.3,977.2z"/>
<path d="M610.9,971c0-2,1.7-14,3.8-26.6c6.3-37.9,4.9-72.3-3.9-97.3c-2-5.6-2.6-9.5-1.7-10.4s1.8-0.9,2.2-0.2
	c2.1,3.4,7.2,24,8.8,35.4c2.5,17.8,1,57-3.2,80.9C613.8,970.7,610.9,979.6,610.9,971L610.9,971z"/>
<path d="M620.9,966.6c-0.5-0.8-0.2-1.9,0.7-2.4c0.8-0.5,1.5,0.1,1.5,1.4C623.1,968.3,622.2,968.7,620.9,966.6L620.9,966.6z"/>
<path d="M598.7,908.6c0-0.8,0.7-1.5,1.5-1.5s1.5,0.7,1.5,1.5c0,0.8-0.7,1.5-1.5,1.5C599.4,910.2,598.7,909.5,598.7,908.6
	C598.7,908.7,598.7,908.6,598.7,908.6L598.7,908.6z"/>
<path d="M600.2,904c0.1-0.8,0.8-1.5,1.6-1.4c0.7,0.1,1.3,0.7,1.4,1.4c0.1,0.8-0.6,1.6-1.4,1.6c-0.8,0.1-1.6-0.6-1.6-1.4
	C600.2,904.2,600.2,904.1,600.2,904z"/>
<path d="M601,898c0.5-0.8,1.2-1.5,1.6-1.5s0.7,0.7,0.7,1.5c0,0.9-0.8,1.5-1.6,1.5C600.8,899.5,600.5,898.8,601,898z"/>
<path d="M622.5,836.1c-0.6-1.6-0.9-3.4-0.9-5.1c0-1.5-1.4-3.9-3-5.4c-3.5-3.2-3.9-7.3-1-9.7c2.5-2.1,4-0.7,4,3.7
	c0,1.9,1,3.8,2.3,4.3c1.5,0.6,2.3,3,2.3,6.9C626.2,837.2,624.1,840.2,622.5,836.1L622.5,836.1z"/>
<path d="M627.6,817.9c0-4.8,3.6-4.2,4.3,0.6c0.3,2.2-0.3,3.3-1.9,3.3S627.6,820.4,627.6,817.9z"/>
<path d="M616.9,809.2c-2.5-2.7-3-4.6-2.4-9c0.6-3.7,0.2-6.1-1.2-7.3s-2.1-4.6-2-8.9c-0.1-4.9-1-9.8-2.7-14.4
	c-3.6-9.4-2.5-16.1,5.1-30.4c3.9-7.5,7.3-15.1,10.2-23c3.8-10.5,6.7-14.8,6.7-10.2c0,3.8-6.9,21.5-13.1,33.6
	c-6.9,13.5-8.2,20.3-5.2,28.1c0.8,2.2,1.7,8.1,2,13c0.5,10.2,1.5,11.9,5.7,9.3c1.4-0.9,2.9-1.5,4.5-1.8c3,0,1.5,3-2.7,5.2
	c-3.8,2-4.2,2.9-3.7,8c0.4,3.6,1.9,6.8,3.9,8.5c2.8,2.2,2.9,2.6,0.7,2.7c-1.4,0-4.1-1.5-5.8-3.4L616.9,809.2z"/>
<path d="M629.8,805.2c0.5-2.8,0.9-5.7,0.9-6.5c0.1-0.8,0.7-1.4,1.5-1.3c2.4,0,1.8,6.7-0.9,10C629.1,810.2,629,810.1,629.8,805.2
	L629.8,805.2z"/>
<path d="M635.3,771.5c0-2.5,0.7-4.6,1.5-4.6s1.5,2.1,1.5,4.6s-0.7,4.6-1.5,4.6S635.2,774.1,635.3,771.5L635.3,771.5z"/>
<path d="M636.8,745c0-2,0.7-4.1,1.5-4.7s1.5,1,1.5,3.7c0,2.6-0.7,4.7-1.5,4.7S636.8,747,636.8,745L636.8,745z"/>
<path d="M513.4,1025.9c-2.9-0.7-11.2-2.4-18.3-3.9c-95.2-19.4-190.5-72.7-259.4-145.3c-12.8-13.4-37.2-42.5-42.3-50.3
	c-2.2-3.4-2.5,1.2-3.4,60.8c-0.6,35.5-1,81.5-1,102.4v37.8l164.9-0.2C444.5,1027.2,516.3,1026.6,513.4,1025.9z"/>
<path d="M583.2,1023c-1.1-1.8-3-3.2-4.2-3.2c-1.4,0-0.9,1.2,1.5,3.5C584.9,1027.5,585.9,1027.4,583.2,1023L583.2,1023z"/>
<path d="M1011.3,941.7c-0.1-47.1-0.6-93.7-1.1-103.5l-0.9-17.8l-13.7,17.8c-16.7,21.7-61.2,66.8-83,84
	c-52.2,41.2-112.6,72.9-171.4,89.9c-9.2,2.7-17.6,5.1-18.6,5.4c-1.4,0.4-1.4,1.7,0,5.2l1.8,4.7h287.2L1011.3,941.7L1011.3,941.7z"/>
<path d="M556.9,1020.4c-0.8-4.1-0.6-5.3,0.9-4.8c1.1,0.4,2.3,2.3,2.8,4.2s1.8,3.9,2.9,4.3c1.4,0.5,1.8-0.2,1.3-2.2
	c-2-7.3-2-7.4,1.9-7c2.1,0.2,6.5,0.6,9.9,0.8c3.2,0.2,6.4,0.7,9.5,1.6c2.8,1,3.4,0.6,3.4-2c0-1.8-1.7-6.5-3.7-10.6
	c-2-4-3.4-8.6-3-10.2s-1.4-6.2-4.5-11c-4.2-6.5-5.8-11.2-7.7-22.8c-4-24.2-5.1-29.8-6.2-32.6c-0.7-1.9-0.3-2.7,1.4-2.7
	c3,0,3,0.2,0.1-8.4c-2.1-6.2-2.1-8.2-0.3-16.4c1.5-6.6,1.8-13.4,0.9-20.1c-1.6-14-5.2-35.9-6.6-39.2c-0.6-1.4-0.3-5,0.7-8
	c2-6.2,0.3-9.9-4.8-9.9c-2.1,0-2.9,1.1-2.9,4c0,3.4-0.4,3.7-2.3,2.1c-1.2-1-1.9-2.5-1.5-3.2c0.4-0.7-1-4.7-3.2-8.9
	c-3.9-7.4-4.5-13.7-1.5-14.3c0.8-0.2,1.7,1.8,2,4.4c0.6,5.7,5.6,10.8,11.9,12.1c3.8,0.8,4.8,0.3,6.2-2.8c1.3-2.9,1.2-4-0.5-5.1
	c-1.7-1.1-1.5-2.3,1.6-6.9c5.3-7.7,6.2-12.6,3.3-16.8c-2.5-3.6-3.5-15.8-1.1-14.3c0.7,0.5,1.8,3.6,2.3,7.1c1.3,7.9,4.6,7.3,5.2-1
	c0.3-3.3,1.1-6.6,1.9-7.4c1.7-1.8,1.7-23.5,0-38.2c-0.9-7.5-0.7-11.3,0.6-13c2-2.6,12-37.6,14.4-50.3c0.8-4.6,1.8-11.5,2-15.2
	c0.4-6.8,0.4-6.9-4.9-7.6c-3.6-0.5-5.8-1.9-6.8-4.2c-0.8-1.9-1.8-3.4-2.3-3.4s-3.5,4.3-6.9,9.5c-9.7,15.1-26.7,34.7-38.6,44.4
	c-9.5,7.8-10.9,9.5-10.2,13c0.4,2.2,1.2,9.1,1.7,15.4c1.1,12.7,6.5,37.8,8.7,40.7c0.8,1,1,3.3,0.4,5c-0.7,2.2-0.4,3,1,2.7
	s1.9,0.9,1.6,3.3c-0.2,2,0.7,7.1,2.1,11.2s2.1,7.8,1.7,8.2c-1.4,1.4-7.2-11.8-7.2-16.5c0-7.5-1.3-4.4-3.7,8.8
	c-3,16.9-4,29.4-2.3,30.4c1.7,1,1.8-2.2,1.4-12.8c-0.3-8.1,3.2-8.2,4.7-0.1c0.5,2.7,1.2,5.3,2.1,7.9c0.8,1.9,0.4,2.7-1.3,2.7
	c-1.5,0-2.1,0.8-1.5,2.3c1,2.7-3.5,12.9-5.6,12.9c-0.8,0-1.5-0.8-1.5-1.6c0-0.9-0.6-1.2-1.4-0.7c-2.7,1.7-6.5,23.1-7.3,41.3
	c-0.7,15.1-0.3,20,1.9,27.1c2.6,8.2,6.8,14.4,4.9,7.3c-0.5-1.8-0.2-3.7,0.5-4.1c1.5-0.9,2,1.1,4.5,18.3c2.6,17.6,8,33.3,16.1,47
	l7.1,11.9l-1,12.4l-1,12.5l3-3.8c2.7-3.4,3.1-3.5,4-1.1c0.6,1.9,0,4-1.4,5.4c-1.4,1.6-2,3.9-1.5,6c1,4-1.7,4.5-3.8,0.7
	c-2.2-4-3.7-1.2-2.6,4.9c0.6,3.2,1.9,5.4,3.2,5.4s2.2,1.5,2.2,3.8c0,2.1,0.8,3.8,1.7,3.8C557.3,1025.9,557.5,1024,556.9,1020.4
	L556.9,1020.4z"/>
<path d="M561.4,1010.7c-0.5-0.8-0.2-1.5,0.7-1.5c0.9,0,1.6,0.7,1.6,1.5c0,0,0,0,0,0c0,0.8-0.3,1.5-0.7,1.5
	S561.9,1011.5,561.4,1010.7z"/>
<path d="M563.7,994.7c0-2.1,0.7-3.8,1.5-3.8c0.8,0,1.5,1.7,1.5,3.8s-0.7,3.8-1.5,3.8C564.4,998.5,563.7,996.8,563.7,994.7
	L563.7,994.7z"/>
<path d="M570.6,995.8c-0.5-0.5-0.8-2.6-0.8-4.8c0-3.4,0.3-3.6,1.9-1.5c1,1.3,2.7,2.1,3.8,1.8c1.1-0.4,1.9,0.4,1.9,1.6
	C577.4,995.1,572.2,997.4,570.6,995.8L570.6,995.8z"/>
<path d="M535.5,934.1c-4.5-15.3-5.8-28.7-4.8-53.2c0.7-17.5,1.6-25.2,3.4-29.1c2.3-4.9,2.3-5.9,0-13.7c-2.3-7.8-2.1-13.3,0.5-13.3
	c1.2,0,3.5,13.2,3.5,20.6c0,2.5-1.2,12.5-2.7,22.1c-3.1,20.1-2.4,43.8,1.7,58.7c3.8,14,4.1,15.9,2.3,15.9
	C538.6,942.1,536.8,938.5,535.5,934.1L535.5,934.1z"/>
<path d="M526.5,893.2c-5.3-16-6.8-41.8-2.6-45.9c1.6-1.5,1.7-0.3,0.9,6.5c-0.6,5.1,0,14.6,1.4,24.2c1.3,8.7,2.1,16.2,1.7,16.6
	S526.8,894.4,526.5,893.2L526.5,893.2z"/>
<path d="M549.5,804.9c-6.2-6.8-6.6-8.6-3.9-18.7c1.4-5.3,1.4-8-0.2-12.7c-1.7-5.2-1.6-6.6,0.6-10.9c3.9-7.5,13-19,16.2-20.5
	c1.6-0.8,4.1-4,5.6-7.2c2.9-6.4,5-7.6,5-2.9c0,5.1-3.3,10.5-7,11.4c-2.1,0.5-4.8,3.3-6.6,6.8c-2,3.8-4.3,7.3-7,10.7
	c-3.6,4.3-3.9,5.5-2.9,12c0.7,4,1.2,7.5,1.1,8s-0.6,4.3-1.1,8.6c-1,7.3-0.7,8.2,3.9,13.4C560.2,810.7,556.8,812.8,549.5,804.9
	L549.5,804.9z"/>
<path d="M571.3,1022.2c0-1.3-0.7-2.3-1.5-2.3c-0.8,0-1.5,1-1.5,2.3s0.7,2.3,1.5,2.3C570.6,1024.4,571.3,1023.4,571.3,1022.2
	L571.3,1022.2z"/>
<path d="M804.6,981.8c5.3-1.5,7.9-4.3,8.1-9c0.1-2.3,13.8-7.4,20.2-7.6c2.1-0.2,4-1.3,5.3-2.9c1.2-1.7,4.9-3.3,8.8-4
	c7.8-1.3,12.2-4.5,12.2-8.8c0-2.4,0.4-2.6,2.1-1.3s2.9,1,5.7-1.3l3.6-3h-5c-6.2-0.1-6.3-2.3-0.2-5.5c2.6-1.3,4.5-2.7,4.2-3
	c-0.8-0.8-15.5,2.5-17.3,3.9c-2.5,2-22.8,3.5-31.9,2.3c-8.3-1-8.6-1.3-15.4-10.7c-10.8-15.2-14.7-24.5-28.9-70.1
	c-8.3-26.4-15.3-41.2-27.3-57.1c-11.2-14.8-16.2-25.8-17.2-37.3c-0.5-5.3-1.9-10.7-3.4-12.6c-3.1-4-7.6-15.5-11.6-29.4
	c-2.5-8.8-2.9-9.4-3.6-5.4c-1.2,6.6-3.6,5.6-4.9-1.9c-2.1-12.5-16.2-37.4-28.9-50.8c-2.7-2.9-5.3-5.9-7.7-9.1
	c-2.6-3.6-2.6-3.5-2.7,6.3c-0.1,12.6-3,49.2-4.4,56.3c-1,4.7-0.4,6.2,5.3,13.7c3.5,4.6,7.6,12.2,9,16.8c5.2,17.1,7.1,21,15.2,30.5
	c4.6,5.4,8.4,10.8,8.4,12.1c0.2,2.1,0.5,4.1,1,6.1l1,3.8l-3.5-3c-2-1.7-3.1-2.3-2.6-1.4s3,9.6,5.6,19.4s5.8,20.7,7.2,24.3
	c4.5,11.5,12.9,22.6,22.4,29.5c5.7,4.2,10.7,9.4,14.6,15.3c2.9,4.6,6.2,9,9.9,13c2.3,2.3,3.9,4.6,3.4,5c-1.6,1.6-6.7-2.8-11.9-10.3
	c-8.3-11.9-12-16-12-13.5c-0.1,4.9,7.6,18,16.5,28.2c5.1,5.9,12.5,14.9,16.5,20.1s7.4,9.3,7.6,9.1c1-1-6-26.4-12.2-44.4
	c-7.5-21.8-23.1-57.3-29.3-66.7c-3.1-4.5-6.5-8.7-10.2-12.7c-3.6-3.9-5.2-6.7-4-6.7c2.4,0,8.5,6.2,16.3,16.3
	c11.3,14.8,33.5,68.8,39,94.9c5.2,24.7,8.1,33,13.9,38.9c5.4,5.6,5.4,5.6,2.5,8.6s-3,3-4-2c-0.7-3.4-1.5-4.5-2.5-3.4
	c-2.5,2.5,0.1,14.4,4.1,18.4s5.2,4.1,13,1.9L804.6,981.8z"/>
<path d="M799.2,962.6c-1.1-2.9,0.2-5.6,2.2-4.4c1.8,1.1,1.9,6.8,0,6.8C800.7,965,799.6,963.9,799.2,962.6L799.2,962.6z"/>
<path d="M799.3,953.4c-0.7-1-1-2.1-1-3.3c0-1.3-1.1-3.5-2.5-5.1c-2.4-2.6-2.3-2.8,0.8-2.8c3.4,0,3.8,0.6,5.4,8
	C802.8,954.1,801.5,955.6,799.3,953.4L799.3,953.4z"/>
<path d="M827.2,951.4c0-0.8,0.7-1.5,1.5-1.5c0.8,0,1.5,0.7,1.5,1.5c0,0.8-0.7,1.5-1.5,1.5C827.9,952.9,827.2,952.2,827.2,951.4
	C827.2,951.3,827.2,951.3,827.2,951.4L827.2,951.4z"/>
<path d="M849.4,948.9c-0.7-1.9-2.2-2.2-6.6-1.4c-3.6,0.7-5.1,0.5-4.2-0.4s4.4-1.9,8-2.4c6.2-0.9,6.5-0.8,6.5,2.9
	C853.1,951.8,850.9,952.7,849.4,948.9L849.4,948.9z"/>
<path d="M803.2,944.3c-2.6-1.1-2.4-3.3,0.5-6.2c2.6-2.6,4.7-1.4,5.5,3.3C809.7,944.4,806.9,945.8,803.2,944.3L803.2,944.3z"/>
<path d="M796,933.1c0.5-0.8,1.2-1.5,1.6-1.5s0.7,0.7,0.7,1.5c0,0.9-0.8,1.6-1.6,1.5C795.7,934.5,795.4,933.9,796,933.1L796,933.1z"
	/>
<path d="M734.3,866.8c-0.8-2.1-1.3-4.3-1.5-6.6c0-1.4-1.7-6.2-3.8-10.7c-4.1-8.8-2-10.2,2.9-1.9c3.7,6.3,7.2,21.1,5.3,22.3
	C736.4,870.4,735.1,869,734.3,866.8L734.3,866.8z"/>
<path d="M723.1,828.4c-0.4-1.1-0.3-2.4,0.4-3.3c0.9-1.5,1.5-1.6,2.3-0.2c0.6,1.1,0.4,2.4-0.4,3.3C724.6,829,723.6,829.1,723.1,828.4
	L723.1,828.4z"/>
<path d="M717.2,813.2c0.9-0.5,2-0.4,2.9,0.1c0.5,0.5-0.4,0.9-2,0.8C716.4,814.1,716,813.7,717.2,813.2z"/>
<path d="M710.6,801.4c-3.5-2.5-1.7-5.3,2-3c2.8,1.8,4.4,5.2,2.3,5.2C714.2,803.6,712.2,802.6,710.6,801.4L710.6,801.4z"/>
<path d="M720.6,788.2c-5.1-2-9.2-5.9-9.2-8.7c0-1.8,0.8-1.6,3.5,1c1.9,1.8,6.7,4.4,10.7,5.7s7.2,2.7,7.2,3
	C732.7,790.4,724.3,789.7,720.6,788.2L720.6,788.2z"/>
<path d="M723.6,778.5c0-1.4,0.7-2.3,1.6-2c1.1,0,2,0.9,2,2s-0.9,2-2,2C724.3,780.7,723.6,779.8,723.6,778.5L723.6,778.5z"/>
<path d="M713.3,775.1c-2.1-0.5-3.9-1.8-5-3.6c-0.8-1.6-2.4-2.7-4.2-2.9c-4.5,0-8.8-4.1-10.6-10.2c-1.2-3.6-3.4-6.9-6.3-9.3
	c-8.3-6.1-13.2-21-9.8-29.8c1.9-5,3.8-2.3,2.9,4.1c-1.3,8.8,2.5,18.1,10.1,24c3.9,3.1,6.4,6.7,7.5,10.5c1.8,6.7,6,9.4,7.2,4.6
	c1.1-4.2,5-3.9,5,0.5c0,4.7,3,8.3,7.3,8.9c1.9,0.3,3.5,1.2,3.5,2C720.6,775.6,718.1,776,713.3,775.1L713.3,775.1z"/>
<path d="M708.3,749.2c0.1-2.6,0.8-5.2,2.2-7.4c2.1-2.8,2.2-2.6,2.3,2.6c0,3.1-1,6.4-2.2,7.4C708.7,753.3,708.4,753,708.3,749.2
	L708.3,749.2z"/>
<path d="M679.6,712.4c-1.4-2.5-1.5-4.1-0.4-5.2c2-2,3.8,1.8,2.9,6C681.6,715.6,681.3,715.5,679.6,712.4L679.6,712.4z"/>
<path d="M375.9,966.9c3.1-0.7,4.1-2.2,3.6-5.4c-0.6-3.4,4.7-26.1,6.4-27.5c1.1-0.9,3.2-6.7,4.6-12.8c1.5-6.3,4.5-13.9,6.9-17.5
	s9-14.6,14.6-24.6s12.2-20.2,14.6-22.6c5.9-5.8,12.4-17.5,17.3-31.2c5-14.1,5-16.7,0-7.9c-4.5,8-4.9,8.4-6,7.3
	c-0.9-1,3.5-11.3,13.1-30.6c4.5-9.1,7.4-13.2,9-13c2.7,0.5,20-12.4,23.6-17.5c3.9-5.5,2.9-7.9-1.7-4.3c-4,3.1-12.7,4.4-12.7,1.8
	c0-0.8,1.5-1.8,3.4-2.3c4.1-1.1,12.4-8.5,13.9-12.3c1-2.7,1.2-2.7,3.3,0.1s2.6,2.5,9.7-5c8.1-8.6,16.5-27.3,18.1-40l0.8-6.8
	l-5.6,4.9c-3.1,2.7-7.5,5.4-9.8,5.9c-2.6,0.7-5.1,2-7.2,3.7c-3.7,3.3-12.1,7.6-14.8,7.7c-2.2,0-10.4,12.7-10.4,16
	c0,1.2-1,2.2-2.2,2.2c-1.2,0-3.6,2.4-5.4,5.2c-2.8,4.5-3,5.7-1.3,8.4s1.4,3.6-2.2,7.2c-2.3,2.3-4.5,3.8-4.9,3.4s-0.2-4.7,0.5-9.5
	c0.5-5.5,2.7-10.8,6.1-15.2c2.7-3.5,7-9.6,9.5-13.5c3.4-5.2,6.4-7.8,11.3-9.6c7.8-3,14.4-9.4,16.7-16.3c2.4-7.2,5.9-7.7,4.6-0.7
	c-1.2,6.7-0.1,6.9,6.6,1.2l5.1-4.3l0.4-46.8c0.2-25.8-0.1-48.3-0.8-50c-1.1-2.9-1.8-2.4-7.4,5.1c-12.4,16.6-20.9,35.7-27.9,63.1
	c-1.7,6.7-5.2,18.7-7.7,26.6s-4.2,15.8-3.7,17.5c1.2,4.2-6.8,21.7-10.3,22.7c-1.6,0.3-2.6,1.9-2.3,3.5c0.5,3.1-3,12.7-4.7,12.7
	c-1-0.3-1.9-0.8-2.6-1.6c-1.1-1.1-2.2-0.1-3.7,3.4c-1,2.3-1.7,4.8-2.1,7.3c0,1.1-1,2-2.1,1.9c-0.1,0-0.3,0-0.4-0.1
	c-1.6-0.2-7.9,6.6-17.5,19c-16.3,21-24.6,33.4-19.7,29.4c2.7-2.2,2.7-2.1,0.8,1.5c-1.1,2.1-4.3,9.6-7.1,16.8
	c-4.1,10.6-4.9,11.8-4.1,6.5c0.5-3.6,0.6-6.5,0.2-6.5c-2.7,0-17.8,54.3-17.8,64c0,6.4-6.3,27.5-9.8,32.8c-2.5,3.8-2.5,3.8,1.4,2.8
	c5.3-1.3,5.1,2-0.3,4.3c-4,2-7.9,4.3-11.6,6.8c-4.1,2.8-8.3,5-9.3,5s-2.3,1.2-2.7,2.7s-1.3,4-2,5.7c-1.1,2.8-1,2.8,1.5,0.8
	c1.8-1.6,3.2-3.6,4.1-5.9c1.1-2.8,1.9-3.3,3.4-2c1.1,0.9,2.5,1.2,3,0.7s1,0,1,1.3s-1.7,3.1-3.8,4c-3,1.4-3.8,2.8-3.6,6.7
	s0.3,4.3,0.8,1.1s2.2-4.4,7.7-6.4c7.4-2.7,9.8-2.4,6.7,0.7s-2,5.8,2.7,5.8c2.5,0,4.9-0.7,5.4-1.5c1.6-2.5,4.2-1.7,3.2,1
	c-0.8,2-0.5,2.2,1.2,0.7s2.4-1.2,3.2,1.3c1.9,6-3.2,8.2-9,3.9c-3.6-2.7-5.5-1.7-5.5,3.1c0,4.1,4.1,7.2,7.6,5.8
	C372,967.9,374,967.3,375.9,966.9z"/>
<path d="M377.8,933.3c0-3.4,3.9-9,5.3-7.7c1,1-3.2,10.4-4.6,10.4C378.2,936,377.8,934.8,377.8,933.3z"/>
<path d="M372.5,931.5c-1.1-1.8,0.3-4.6,2.4-4.6c1.9,0,1.9,4.1,0,5.3C374,932.6,373,932.3,372.5,931.5L372.5,931.5z"/>
<path d="M379.9,875.1c0.6-6.1,8-33.4,9.4-34.8c0.5-0.5,1.4-0.1,2.1,1c1.6,2.6,12.9-15.7,24.1-39.3c8.7-18.3,15.5-29,15.6-24.6
	c0,1.1-3.7,8.7-8.4,16.8s-9.1,17.3-10,20.4s-5.4,12.1-10.1,19.8s-11.1,19.6-14.1,26.3C378.5,882.5,379.2,881.2,379.9,875.1z"/>
<path d="M414.4,866.7c0-0.8,11.6-21.7,17.1-30.9c1.7-2.8,3.3-4.8,3.6-4.4c0.7,0.7-19,36.1-20.1,36.1
	C414.7,867.5,414.4,867.1,414.4,866.7z"/>
<path d="M453.4,777.3c3.1-5.4,6-7.2,11.5-7.2c3.2,0,5.9,0.7,5.9,1.5s-2,1.5-4.3,1.5c-2.7,0.1-5.2,1.2-7.1,3
	C456.4,779.4,451.7,780.3,453.4,777.3L453.4,777.3z"/>
<path d="M432.8,773.2c-3.4-6.4-1.5-7.8,4.4-3.3l3.7,2.8l-3.2,1.7C434.9,775.9,434.1,775.7,432.8,773.2L432.8,773.2z"/>
<path d="M446.1,773.8c-1.4-1.4,0.2-20.6,2-23.9c2.7-5,5.1-1,3.1,5c-1.1,3.4-1.6,6.9-1.7,10.4C449.4,770.9,447.6,775.3,446.1,773.8
	L446.1,773.8z"/>
<path d="M457.7,766.9c-1.3-2.1-0.9-2.5,4.5-3.8c3.1-0.8,4.1-0.6,3.3,0.6C463.7,766.7,458.9,768.7,457.7,766.9z"/>
<path d="M358,957.6c0-0.7-1.4-1.7-3-2.1c-2-0.5-3,0-3,1.3c0,1.2,1.4,2.1,3,2.1S358,958.3,358,957.6L358,957.6z"/>
<path d="M339.1,939.5c-1.1-1.1-4,1.1-4,2.9c0,1,0.9,0.9,2.3-0.3C338.8,941,339.5,939.9,339.1,939.5L339.1,939.5z"/>
<path d="M881.2,937.5c0.5-0.8-0.1-1.5-1.3-1.5c-1.3,0-2.4,0.6-3.2,1.5c-0.5,0.8,0.1,1.5,1.3,1.5
	C879.2,939.1,880.4,938.5,881.2,937.5L881.2,937.5z"/>
<path d="M888.1,933.1c0-1.7-3.8-3.2-7.7-3.2s-3.7,2.7,0.5,3.5C886.9,934.6,888.1,934.6,888.1,933.1L888.1,933.1z"/>
<path d="M185.5,382.7l-0.4-142l-11.9,19c-32.1,51.1-59,120-68.9,176.2c-9,51.2-9.5,114.9-1.3,164.2c12.9,77.5,35.6,137.9,73.6,195.7
	l8.5,12.9l0.4-142C185.7,588.7,185.7,460.9,185.5,382.7L185.5,382.7z"/>
<path d="M1026.7,786.7c25.6-42.1,49.8-103.4,60.1-152.3c7.9-37.5,9.1-52.1,9.1-104.3s-0.7-60.5-8.3-100.5
	c-9.5-50.3-23.7-91.9-46.3-135.6c-10.8-20.9-27.9-48.9-29.1-47.7c-0.3,0.3,0,84.9,0.8,187.9s1.4,228.4,1.5,278.6
	c0,78.9,0.3,91,2.2,89.1C1017.9,800.7,1022.4,793.9,1026.7,786.7L1026.7,786.7z"/>
<path d="M525.6,688.7c0.2-1.5,1-2.9,2.2-3.9c2.9-2.4,4.9,0.7,2.4,3.8C527.8,691.3,525.6,691.4,525.6,688.7z"/>
<path d="M524.1,683.5c0-0.7,2.8-3.9,6.2-7.2c7.7-7.3,27.3-31.6,31.2-38.3c2.6-4.5,5.2-6.5,5.2-4c0,3.6-11.3,19.2-24.4,33.7
	C528.1,683.3,524.1,686.8,524.1,683.5L524.1,683.5z"/>
<path d="M576.8,604.5c-0.6-0.7-1-1.6-1-2.6c0-1,0.7-0.9,1.8,0.2s1.4,2.2,1,2.6C578.1,605.1,577.3,605,576.8,604.5L576.8,604.5z"/>
<path d="M614.4,600.2c0.6-1.9,1-3.9,1-5.8c0-2.3,0.5-2.8,1.7-1.6c2.2,2.2,1.2,8.4-1.5,9.3C614.1,602.7,613.7,602.1,614.4,600.2
	L614.4,600.2z"/>
<path d="M648.3,597.6c-2.8-4-3.1-5.8-0.9-5.8c1.6,0,5.1,7.6,4,8.7C651.1,600.8,649.7,599.5,648.3,597.6L648.3,597.6z"/>
<path d="M626.7,586.5c-1.1-2.9-0.2-7.3,1.7-7.9c0.8-0.3,2.8,0.5,4.3,1.7c2.7,2,2.7,2.2-0.4,5.3C628.6,589.3,627.8,589.5,626.7,586.5
	L626.7,586.5z"/>
<path d="M564.4,585.7c-1.2-2,0.6-4.9,2.4-3.7c1.8,1.1,1.8,5.3,0,5.3C565.8,587.1,564.9,586.5,564.4,585.7L564.4,585.7z"/>
<path d="M598.7,580.4c-3.7-2.2-3.5-2.2,4.6-2.2c4.7,0,9.4-0.3,14.1-1c4.5-0.8,5.7-0.6,5.7,1.2c0,1.4-1.6,2.3-4.2,2.4
	c-2.3,0.1-6.9,0.5-10.3,1C604.6,582.3,601.2,581.9,598.7,580.4L598.7,580.4z"/>
<path d="M564.7,570.4c-5.8-4.6-10-12.3-11.8-21.5c-0.8-4.5-2.9-10-4.6-12.3c-3.6-4.9-3.7-5.8-0.8-5.8c3.7,0,8.2,7.4,10.2,16.5
	c2.3,10.5,5,16.5,10.2,22C572.4,574.2,570.4,574.9,564.7,570.4z"/>
<path d="M626.4,550.5c0-1.1,0.9-2,2-2s2,0.9,2,2c0.3,0.9-0.6,1.6-2,1.6S626.1,551.5,626.4,550.5L626.4,550.5z"/>
<path d="M564.9,545.7c-1.2-2.5-1.9-5.2-2.2-8c-0.4-3.6-1.1-7.2-2.1-10.7c-1.4-4.8-1.3-7.1,0.2-10.7c1.9-4.5,1.9-4.5,3,4.6
	c1.4,11.6,3.9,24.7,5.2,26.7c0.5,0.8,0.2,1.5-0.6,1.5S565.9,547.6,564.9,545.7L564.9,545.7z"/>
<path d="M627,538.5c1.3-3.4,2.1-7.5,1.7-9.1s0.5-4.6,2.1-6.7c2-2.9,3.4-6.1,4.2-9.5c1.3-5.7,1.3-5.7,2.4-1.8
	c0.7,2.7,0.2,5.7-1.4,8.9c-1.6,3.3-2.6,6.9-2.9,10.5c-0.4,5.6-4.6,13.8-7.1,13.8C625.2,544.6,625.7,541.8,627,538.5L627,538.5z"/>
<path d="M594.1,535.5c0.3-1.1,0.9-2,1.8-2.8c1.3-1.3,1.3-2.3-0.2-4.1s-1.6-2.8,0-4.6c3.2-3.9,6.1-2.7,6.1,2.5c0,2.7,1,6,2.3,7.4
	c2.2,2.4,1.9,2.6-3.8,2.6C596.9,536.5,594.1,536.1,594.1,535.5L594.1,535.5z"/>
<path d="M648.2,530.9c-1.2-2,3-9,6.1-10.2c4.8-1.8,4.7,0.5,0,6C651.2,530.3,648.9,531.9,648.2,530.9L648.2,530.9z"/>
<path d="M599.5,514.4c-2-1.9-2.9-2.1-3.4-0.7c-0.7,1.9-5,2.7-5,0.9c0-0.5,1.4-3.3,3.2-6.1c3.2-5.2,6-6.7,6-3.2
	c0.4,2.1,1.1,4.2,2.2,6.1C605,516.4,603.3,518.1,599.5,514.4L599.5,514.4z"/>
<path d="M624.6,514.2c0-1.7,0-3.6-0.1-4.2s0.6-1.3,1.5-1.7c2.1-0.7,2.2,6.8,0.1,8.1C625.3,516.9,624.6,515.9,624.6,514.2
	L624.6,514.2z"/>
<path d="M560.6,507.2c0-2.2,0.7-3.5,1.5-3s1.5,2.3,1.5,3.9s-0.7,3-1.5,3C561.3,511.1,560.6,509.3,560.6,507.2z"/>
<path d="M630.6,500.3c0-2.7,0.6-4.3,1.5-3.7s1.5,2.6,1.5,4.7s-0.7,3.7-1.5,3.7S630.7,502.9,630.6,500.3L630.6,500.3z"/>
<path d="M635.3,501.7c-0.1-3.6,1.5-7.4,3.2-7.4c2.1,0,1.6,3.6-0.9,6.9C635.6,503.8,635.3,503.9,635.3,501.7z"/>
<path d="M564.3,495.5c-1.8-2-3.9-3.7-6.1-5.2c-2.9-1.7-2.9-1.8,0.1-2.8c2-0.7,3.9-1.5,5.7-2.4c1-0.6,2-1,3-1.4
	c0.2,0,0.5,3.4,0.6,7.6c0.2,2.5,0.2,5.1,0,7.6C566.4,497.8,565.3,496.7,564.3,495.5L564.3,495.5z"/>
<path d="M594.9,493.9c-4.4-7.2-4.4-7.2-1-7.2c1.8,0,3.5-1,4.5-2.4c1.2-2.1,1.9-1.9,5.4,1.6l4.1,4.1l-4.2,4.5c-2.3,2.5-4.6,4.5-5,4.5
	C598.2,498.8,596.6,496.6,594.9,493.9z"/>
<path d="M627.6,491.9c0-1.6,8.8-11.2,9.5-10.5c1.5,1.5-0.9,8-3.2,8.9c-1.4,0.5-3.4,1.3-4.4,1.8S627.6,492.6,627.6,491.9L627.6,491.9
	z"/>
<path d="M566.7,477.8c0-1.5,6.8-4.8,9.6-4.8c2.5,0.1-4.8,6-7.5,6C567.7,479,566.7,478.4,566.7,477.8L566.7,477.8z"/>
<path d="M647.4,477.5c0-0.8,0.7-1.5,1.6-1.5c0.8,0,1.5,0.7,1.5,1.6c0,0.8-0.7,1.5-1.6,1.5C648.1,479.1,647.4,478.4,647.4,477.5
	L647.4,477.5z"/>
<path d="M581.9,474.7c0-2,5.5-6.4,6.6-5.3c0.6,0.6-0.1,2.3-1.5,3.8C584.4,476.2,581.9,476.9,581.9,474.7z"/>
<path d="M633.3,474.4c-4.5-2.6-3-4.2,3.2-3.4c8.3,1.1,12.1-1.3,11.2-7.1c-0.8-5.5,2-6.4,3.1-1c0.9,4.8-1,8-6.4,10.8
	C639.2,476.4,637,476.5,633.3,474.4z"/>
<path d="M553,472.3c-1.6-1.9-1.2-2.2,2.5-2c3,0.1,6-0.3,8.9-0.9l4.6-1.1l-3.6,3.2C561.2,475,555.7,475.5,553,472.3z"/>
<path d="M632.2,458.2c-3.4-3.5-4.7-5.6-3.4-6.1c1-0.4,1.9-2.7,1.9-5.2c0-2.9,0.8-4.4,2.3-4.4s2.3,1.5,2.3,4.6c0,2.5,0.9,5,1.9,5.3
	c1.8,0.7,2.7,8.8,1.1,10.3C637.9,463.2,635.1,461.2,632.2,458.2L632.2,458.2z"/>
<path d="M596.6,451c1.2-9.1-0.3-14.3-4.8-16.4c-4.3-2-5.1-4.6-1.2-4c1.5,0.3,3.5-1.3,4.9-3.7c1.9-3.3,2-5,0.6-8.8
	c-1-2.5-1.2-4.6-0.5-4.6c1.3-0.1,2.5-0.5,3.7-0.9c1.8-0.7,2.4,0,2.4,2.4c0,1.8,1.5,5.4,3.2,7.9c3.6,5,2.7,7.9-1.2,3.9
	c-2.3-2.3-2.7-2.2-4.6,1.5c-1.9,3.7-1.5,9.6,0.8,9.6c0.6,0,2.7-1.8,4.7-3.9c2.2-2.2,5-3.9,8-4.7c4-0.8,6.2-3.5,2.8-3.5
	c-0.8,0-1.5-1.4-1.5-3c0-4.7,3-3.6,4,1.5c0.5,2.5,1.5,4.6,2.2,4.6c0.7,0,1.3,0.5,1.3,1.1c0,0.6-2.1,1.2-4.6,1.3
	c-6.2,0.2-13.3,7.2-15.3,15c-2.7,10.5-3.1,11.5-4.5,11.5C596.3,457.7,596.1,454.7,596.6,451L596.6,451z"/>
<path d="M552.5,453.8c-2.4-2.5-0.8-3.5,5-3.2c3.3,0.2,5.9,1,5.6,1.9C562.6,454.2,554.1,455.3,552.5,453.8z"/>
<path d="M645.5,450.2c-2.7-2.6-3.7-7.7-1.5-7.7c1.7,0,6.5,9,5.2,9.7C648.7,452.5,647,451.6,645.5,450.2L645.5,450.2z"/>
<path d="M532.4,448.5c-0.6-0.9-0.6-2-0.2-2.4c1.1-1.1,4.1,0.8,4.1,2.6C536.3,450.7,533.6,450.5,532.4,448.5z"/>
<path d="M657.6,448.9c-0.8-1.3,3.6-6.2,8-8.6c1.6-0.9,1.7-0.5,0.5,1.7C663.7,446.3,658.5,450.5,657.6,448.9L657.6,448.9z"/>
<path d="M528.8,436.7c-2.1-3.9-1.1-6.4,1.5-3.7c1,1.3,1.3,2.9,1,4.5C530.8,440,530.6,439.9,528.8,436.7z"/>
<path d="M624.1,438.5c-1.7-1.7-1.1-3.5,1.1-3.5c1.6,0.2,3,1,4,2.3c1.6,1.9,1.4,2.3-1.1,2.3C626.4,439.5,624.6,439,624.1,438.5
	L624.1,438.5z"/>
<path d="M534.7,434.9c0-0.8,0.7-1.5,1.5-1.5c0.8,0,1.5,0.7,1.5,1.5s-0.7,1.5-1.5,1.5c0,0,0,0,0,0
	C535.4,436.4,534.7,435.7,534.7,434.9z"/>
<path d="M636.8,434.2c0-1.1,0.6-2.2,1.6-2.7c1-0.4,0.7-2.3-1.1-5.4c-1.5-2.6-2.3-5.3-1.7-5.9c1.7-1.7,5.7,2.4,5.7,5.8
	c0,2.4,0.7,2.8,3.4,2c7.5-2.2,13-2.7,13.9-1.2c0.5,0.8-2.2,2.3-6.1,3.3s-8.5,2.8-10.2,4C638.3,436.9,636.8,437,636.8,434.2
	L636.8,434.2z"/>
<path d="M665.7,430.7c0-0.8,1-2.4,2.3-3.4s2.3-1.2,2.3-0.4s-1,2.4-2.3,3.4S665.7,431.5,665.7,430.7z"/>
<path d="M548.9,408.3c-1.1-2.8,0.3-6.9,2.4-6.9c0.8,0,1.1,1.2,0.5,2.7c-0.9,2.4-0.7,2.4,2.3-0.2s3.4-2.6,4.2-0.4
	c1.5,4-0.5,7.1-4.7,7.1C551.6,410.5,549.4,409.5,548.9,408.3L548.9,408.3z"/>
<path d="M635.2,406.1c0-1.6,0.7-3.4,1.5-3.9s1.5-0.4,1.5,0.3s1.9,2.4,4.2,3.9l4.2,2.6h-5.7C636.3,408.9,635.2,408.4,635.2,406.1
	L635.2,406.1z"/>
<path d="M538.5,377.1c-0.5-0.8-0.2-1.5,0.7-1.5c0.9,0,1.6,0.7,1.6,1.5c0,0.8-0.3,1.5-0.7,1.5S539,377.9,538.5,377.1L538.5,377.1z"/>
<path d="M594.2,369.8c0.1-2.5,0.6-4.9,1.4-7.2c1-2.3,1.3-1.2,1.4,4.2c0,4-0.6,7.2-1.4,7.2S594.2,372.1,594.2,369.8L594.2,369.8z"/>
<path d="M540.8,369.4c0-1.9,1.6-1.9,4.6,0c1.8,1.2,1.6,1.5-1.1,1.5C542.3,370.9,540.8,370.3,540.8,369.4L540.8,369.4z"/>
<path d="M527.1,365.2c0-0.8,1.7-1.9,3.8-2.4c5.6-1.4,9.9-6.3,9.9-11.4s-2-7.1-8-8.6c-2.3-0.6-4.2-1.7-4.2-2.4c0-1.9,2.3-1.7,8.4,0.9
	c5.8,2.4,8.6,7.6,7.3,13.2c-0.8,3.5-0.8,3.5,1.4,0.7c1.3-1.8,1.8-3.9,1.5-6.1c-0.7-3-0.5-2.9,3.4,0.6c4.8,4.3,7.6,9,6.3,10.3
	c-0.5,0.5-2.2-0.4-3.9-1.9c-2.8-2.5-3.1-2.5-3.1-0.2c0,1.3-1,2.5-2.4,2.5c-2.3,0.3-4.5,1-6.5,2.1C535.3,365.3,527.1,367,527.1,365.2
	L527.1,365.2z"/>
<path d="M554,349.9c-2.7-3-3.3-6.4-1.2-6.4c1.3,0,6.3,6.6,6.3,8.3S556.4,352.5,554,349.9L554,349.9z"/>
<path d="M715.9,703.4c-0.2-17.7-3.2-20.3-5.1-4.4c-1.1,8.8,0.2,14.7,3.1,14.7C715.5,713.7,715.9,711.2,715.9,703.4L715.9,703.4z"/>
<path d="M708.4,690c0-14.5-2.9-30.9-6.8-38.8c-1.8-3.5-3.3-7-4.6-10.7c-1.2-3-2.8-5.8-4.8-8.2c-2-2.4-7.5-12.4-12.3-22.1
	c-7.1-14.6-8.5-18.9-8.2-24.5c0.2-4-1.1-11.2-3.1-17.5l-3.5-10.7l-0.4,15.2c-0.2,8.4,0.2,19.3,0.9,24.4c1.2,8.6,1.4,8.8,2.5,4.2
	c0.6-2.7,1.8-5,2.5-5c2.4,0,1.4,6.4-1.7,11.4c-2.9,4.7-3,5.7-1,22.4c2.2,18.8,3,20.6,16.2,35.5c3,3.3,9.2,12.4,13.8,20.2
	s8.9,14.1,9.5,14.1S708.4,695.4,708.4,690L708.4,690z"/>
<path d="M593.6,641.7c-0.5-1.9-1-8.2-1.1-14.1c-0.2-9-0.4-9.8-1.3-5c-0.6,3.1-2.2,7-3.6,8.5c-4.7,5.2-2.8,14,3.2,14
	C593.9,645.1,594.3,644.6,593.6,641.7z"/>
<path d="M613.9,637.1c0-5.2-2.2-10.1-3.8-8.5c-0.9,0.9,2.2,13.4,3.3,13.4C613.7,642.1,613.9,639.9,613.9,637.1z"/>
<path d="M612.6,615.7c-2.3-2.3-3.3-0.8-2.2,3.3c0.8,3.1,1.1,3.2,2.4,0.9C613.8,618.3,613.7,616.8,612.6,615.7z"/>
<path d="M596.4,597.7c-1.3-2.6-2.8-4.3-3.3-3.9c-0.9,0.9,3.6,8.6,5,8.6C598.4,602.5,597.7,600.3,596.4,597.7L596.4,597.7z"/>
<path d="M626.1,597.7c0-0.8-0.7-1.1-1.5-0.6c-0.9,0.5-1.4,1.4-1.5,2.5c0,0.8,0.7,1.1,1.5,0.6C625.5,599.6,626,598.7,626.1,597.7
	L626.1,597.7z"/>
<path d="M516.5,401.7c0.1-2.5-1.1-4.8-3.2-6.2c-4.3-2.7-4.5-2-1.8,4.7S516.4,407.7,516.5,401.7L516.5,401.7z"/>
<path d="M512.7,387.7c-0.6-0.9-1.6-1.5-2.6-1.6c-1,0-0.9,0.9,0.3,2.3C512.5,391,514.4,390.4,512.7,387.7z"/>
<path d="M691.6,383.3c0-2.1-0.4-2-2.3,0.5c-2.9,3.9-2.9,6.3,0,3.9C690.6,386.5,691.4,385,691.6,383.3L691.6,383.3z"/>
<path d="M869.5,380.3c5.9-2,16.6-3.9,28.2-4.8c10.3-0.8,19.9-1.9,21.3-2.4c4.4-1.4,3.2-5.1-1.5-4.7c-2.3,0.2-4.1-0.4-3.9-1.3
	c0.2-1-3-1.4-9.1-1c-12.4,0.9-10.1-1.1,4.7-4.2l11.8-2.4l0.5-6.1l0.5-6.1h-21.9c-12,0-32.1-0.9-44.6-2.1
	c-20.1-1.8-24.5-1.8-36.3,0.3c-7.4,1.3-13.7,2.6-13.9,2.8s-0.9,7.2-1.5,15.3l-1,14.9l4.3,1.6C821.1,385.7,853.8,385.7,869.5,380.3
	L869.5,380.3z"/>
<path d="M849.1,365.5c-0.6-1.5-3.1-2.3-7.9-2.3c-10.1,0-6-2.5,5.8-3.5c11.5-1,15,0.2,10.9,3.7C853.5,367.3,850,368.1,849.1,365.5
	L849.1,365.5z"/>
<path d="M819.8,363.5c-1.1-0.7-1.5-1.6-0.8-2c2.2-1.2,12.8,0.6,11.9,2C829.8,365.2,822.5,365.2,819.8,363.5z"/>
<path d="M508.8,381.9c-0.1-1.4-7.1-9.5-8.2-9.5c-0.5,0,0.3,2.4,1.7,5.3C504.5,382.4,509,385.2,508.8,381.9z"/>
<path d="M740.4,381.6c3.3-1,3.4-1.3,0.8-1.6c-3-0.2-6.1-0.3-9.1-0.2l-6.1,0.2l9.1-4.5c10.2-5,19-6,19-2.3c0,1.5-1.7,2.4-5,2.5
	c-3.6,0.1-4,0.4-1.5,0.9c1.9,0.4,3.4,1.1,3.4,1.7c0,0.8,46.3-0.3,48.4-1.1c0.2-0.1,0.4-6.3,0.4-13.7v-13.5l-7.2-2.3
	c-22.5-7.2-46.9-2.3-80.1,16.2c-9.9,5.5-11.6,7.1-11.6,10.5c0,4.5,2.7,5.7,13.7,6c3.8,0.1,7.7,0.6,11.4,1.4
	C731.7,383.1,735.6,383.1,740.4,381.6L740.4,381.6z"/>
<path d="M757.9,371.1c-0.5-0.7,5.5-1.7,13.2-2.1s15.6-1.3,17.5-1.9c2.1-0.7,3.4-0.5,3.4,0.5s-2.6,2.4-5.7,3.2
	C779.4,372.8,759.1,373,757.9,371.1L757.9,371.1z"/>
<path d="M469.6,380.6c-1.2-0.4-2.6-0.4-3.8,0c-1,0.4-0.2,0.8,1.9,0.8S470.6,381,469.6,380.6z"/>
<path d="M498.1,379.7c0-1-1.3-4.6-2.9-8l-2.9-6.1l-0.1,6.2c-0.1,5.7,1.9,9.8,4.8,9.8C497.6,381.6,498.1,380.7,498.1,379.7
	L498.1,379.7z"/>
<path d="M514.9,378.8c0-0.7-4.6-8.5-10.3-17.3c-15.5-24.2-14.3-23-13.2-13.4c1,8.7,1.3,9.2,16.5,25.5
	C514.3,380.4,514.9,380.8,514.9,378.8z"/>
<path d="M487.5,368.3c0-5.7-0.5-11.1-1.1-12s-3.9-2.2-7.2-2.9s-10.7-3-16.2-5.5c-16.3-7-35.7-6-64.3,3.4l-5.9,2l1,9.1
	c0.5,5,1.5,9.6,2.1,10.2s13.8,1.4,29.3,1.9c27.4,0.8,28.9,0.2,7.8-3.3c-5.3-0.9-12.5-3.1-16-5s-9-4.8-12.4-6.5
	c-5.2-2.7-5.6-3.2-2.8-3.6c1.8-0.3,8,2,13.8,5c6.2,3.2,12.7,5.4,15.9,5.4c3,0,10.8,1.5,17.4,3.2c24.5,6.6,33.4,8.8,36,8.9
	C487.1,378.5,487.5,377.1,487.5,368.3L487.5,368.3z"/>
<path d="M950.1,371.6c2.4-1.9,4.4-4.3,5.9-7c2.4-4.6,2.3-4.7-0.3-3.6c-1.5,0.7-7.1,1.5-12.3,1.9c-8,0.6-9.8,1.3-12,4.6
	c-2.4,3.7-2.4,4,0.3,6C935.1,376.1,944.9,375,950.1,371.6L950.1,371.6z"/>
<path d="M983.7,371.6c11.2-1.9,9-3.9-3.7-3.4c-9.4,0.4-12,1-12.4,2.9C967.1,373.7,970.8,373.8,983.7,371.6L983.7,371.6z"/>
<path d="M964.9,364.1c3-9.4,5.2-11.8,6.5-7c0.8,3,1.5,3.2,10.2,2.2c23.1-2.6,22.6-5.8-1-6.3l-17.9-0.4v3.9c0,2.2-1.4,6.6-3.1,10
	c-3,5.8-3,6-0.2,6C961.6,372.4,963,370.3,964.9,364.1L964.9,364.1z"/>
<path d="M266,367c2.8-1.4,5.2-2.9,5.2-3.5s-3.3-1.1-7.2-1.1c-4.7-0.1-9.4-1.2-13.6-3.3c-3.5-1.8-6.6-2.6-6.9-1.8s-2.3,1-5.4,0.1
	c-4.8-1.4-4.9-1.2-4.9,2.9c0,4.4,2.9,6.7,6.6,5.3c1.1-0.4,4.4,0.2,7.2,1.4C253.9,369.9,259.7,369.9,266,367L266,367z"/>
<path d="M281.8,364.1c1-1.3,2.5-2.3,3.2-2.3s1.3,1,1.3,2.3s1.4,2.3,3,2.3c2.8,0,3-1,3-12.8c0-14.1-0.4-14.6-11.8-14.6h-5v12.7
	c0,14.8,1.5,17.9,6.1,12.4L281.8,364.1z"/>
<path d="M277.9,360.1c-0.4-0.6,0.4-1.5,1.7-2c3.6-1.4,9.8-1.1,9.8,0.4S278.9,361.7,277.9,360.1z"/>
<path d="M279.5,354.2c-0.6-0.9,1.2-1.5,4.4-1.5c2.9,0,5.8,0.7,6.3,1.5s-1.2,1.5-4.4,1.5C282.9,355.7,280.1,355,279.5,354.2
	L279.5,354.2z"/>
<path d="M229.3,360.4c-1.2-1.9-6.7-2.1-15.3-0.5c-5.7,1.1-5.4,1.2,4.6,1.9C230.6,362.7,230.8,362.6,229.3,360.4L229.3,360.4z"/>
<path d="M732.2,348.9c7.8-1.8,15.3-5.3,29.3-13.8c10.4-6.3,19.8-11.4,21-11.4s5.4-1.3,9.3-2.9c5.8-2.1,11.9-3.6,18-4.5
	c14.4-2.2,41.8-13.9,60-25.7c8-5.1,21.2-12.7,29.6-16.9s14.1-7.9,13-8.2c-1.8-0.6-1.8-1.1-0.1-3.3c1.2-1.4,3.1-2.5,4.2-2.5
	c1.8,0,1.8,0.6,0.3,3.4c-1.7,3.1-1.6,3.2,0.7,1.3c1.4-1.2,2.3-3,2.5-4.9c0-4.2,2.6-4.9,5.1-1.3c1.9,2.8,3.2,3,9.1,2.2
	c11.3-1.7,14.1-5.9,10.9-16.1c-1.4-4.4,1.9-3.5,4.5,1.3c2,3.6,2.3,3.8,2.5,1.1c0.1-3.2,0.1-6.5-0.1-9.7c-0.3-5.7,0-6.6,2.2-5.7
	c2.7,1,10.3-2.2,15.3-6.6c2-1.6,4.2-2.9,6.6-3.8c6.5-2,2.1-2.6-6-0.9c-4.7,1-8.8,2.9-10.1,4.7s-4.8,3.7-8.1,4.6
	c-4.7,1.3-6.2,2.5-7,5.8c-1.9,8.1-5.7,10.3-7.3,4.1c-0.5-2.1-2-3.8-3.5-3.8c-2.1,0-1.9-0.7,1-3.8c2.2-2.3,6-4.1,10.1-4.7
	c3.6-0.5,7.8-1.9,9.3-3.1c2.5-1.9,2.5-2.1-1.1-2.1c-2.1,0-8.6,1-14.5,2.2c-6.6,1.4-11.2,1.7-12.1,0.8c-1.5-1.5-0.4-2,7.3-3.8
	c2.9-0.6,3.9-1.5,2.9-2.5c-2.9-2.9-18,5.3-23.3,12.6c-2.6,3.6-5.6,7.1-6.7,7.7c-5.7,3.2-41.1,15.4-50.1,17.3
	c-19.4,4.1-55.8,20.8-65.8,30.2c-3.4,3.2-7.9,5.8-11.2,6.3c-27.7,4.8-43.5,11.6-70.9,30.6l-6,4.2l11.4,2.5c6.2,1.4,13.5,3.6,16.2,5
	c4.6,2.4,4.8,2.4,3.9,0c-0.7-1.9-0.4-2.3,1.5-1.6c1.3,0.5,2.7,0.1,3.1-0.9c0.5-1.3,1.6-1,3.7,0.9s4.3,2.4,8,1.7
	c3.9-0.8,4.9-0.5,4.3,1.1c-0.4,1.1-3,2.6-5.8,3.1s-5.7,2.1-6.4,3.4c-1.1,2-2.7,1.6-11-2.7c-11.2-5.8-27.8-8.7-30.1-5.2
	c-0.7,1.1-1.3,7.7-1.3,14.6v12.5l10.5-5.2C717.9,353.2,725,350.7,732.2,348.9L732.2,348.9z"/>
<path d="M742.7,331.5c-0.5-0.8,4.1-4.2,10.2-7.5s16.4-9.6,22.9-13.9s12.2-7.8,12.6-7.8s0.7,1,0.7,2.2c0,3-5.5,8-10.3,9.2
	c-2.8,0.8-5.4,2.1-7.8,3.7C761.9,323.7,743.6,332.9,742.7,331.5L742.7,331.5z"/>
<path d="M792.9,288.7c0.5-0.8,2.3-1.5,4-1.5s2.6,0.7,2.1,1.5s-2.3,1.5-4,1.5S792.4,289.5,792.9,288.7z"/>
<path d="M846,277.9c6-3.3,19.5-7.9,20.4-6.9c0.6,0.6-17.3,8-22.5,9.2C841.3,280.9,841.9,280.2,846,277.9L846,277.9z"/>
<path d="M852.4,270.2c1.2-2,14.3-8,15.3-7s-12.3,8.6-14.7,8.6C852.1,271.9,851.8,271.2,852.4,270.2L852.4,270.2z"/>
<path d="M903.4,262.2c0-1.1,1.7-2.8,3.8-3.8c4.5-2,5-0.3,1,3.3C904.8,264.8,903.3,264.9,903.4,262.2L903.4,262.2z"/>
<path d="M874.4,256.7c0-0.8,0.7-1.5,1.5-1.5c0.8,0,1.5,0.7,1.5,1.5c0,0.8-0.7,1.5-1.5,1.5C875.1,258.2,874.4,257.5,874.4,256.7
	C874.4,256.7,874.4,256.7,874.4,256.7L874.4,256.7z"/>
<path d="M904.3,254.5c1.1-2.8,5.7-3.3,4.8-0.5c-0.6,1.3-1.8,2.1-3.2,2.4C904.1,256.7,903.7,256.2,904.3,254.5L904.3,254.5z"/>
<path d="M918.2,252c-3.4-2-3.3-4.3,0.2-8.9c2.7-3.5,3-3.5,5.4-1.1c3,3,5.6,3.3,8.1,0.8c2.7-2.7,3.7-0.7,1.9,3.9
	C931.6,252.5,923.7,255.2,918.2,252L918.2,252z"/>
<path d="M951.7,357.6c8.5-3.5,8.3-5.6-0.4-4.3c-3.8,0.6-6.9,0.7-6.9,0.3c-0.2-1.2-0.6-2.3-1-3.4c-0.9-2.4-0.2-2.6,8.5-1.7
	c11.4,1.2,23.1-0.2,19.3-2.3c-1.5-1-2.4-2.6-2.5-4.4c0-2.6-1.1-3-8.5-3c-5.3,0-8.1-0.6-7.5-1.5c1.4-2.2,15.5-1.9,25.1,0.6
	c6.8,1.8,9.1,1.8,12.9,0.2l4.6-2l-4.6-1.8c-3.4-1.4-9.8-1.5-25.4-0.5c-19.2,1.3-21.3,1.7-28,5.9c-10.5,6.5-11.1,8.1-5.1,14.8
	C938.2,361.1,941.9,361.6,951.7,357.6L951.7,357.6z"/>
<path d="M270.9,348.9l0.4-9.1l-9.4-5.2c-8.4-4.6-9.6-4.9-10.8-2.7c-1.1,1.9-3.8,2.5-12,2.5c-6.2,0-10.6,0.6-10.6,1.6s-1.6,1.1-4,0.5
	c-2.8-0.7-3.7-0.5-3,0.7c0.6,1,4.3,1.7,8.3,1.7s8,0.8,8.9,1.7s3.9,2.1,6.7,2.7c5.6,1.1,8,4.8,3.1,4.8c-5,0-4.9,2.3,0.1,5.3
	c5.6,3.3,12.6,5.2,17.9,4.9C270.2,358,270.5,357.4,270.9,348.9L270.9,348.9z"/>
<path d="M213.4,351c0-2.5-7-2.9-12.9-0.8l-6.1,2.2l9.5-0.1C209.1,352.3,213.4,351.7,213.4,351z"/>
<path d="M603.3,346.2c0-2-0.8-2.6-2.7-1.9c-1.6,0.5-4.8-0.7-8-3l-5.3-3.9l-0.5,3.9c-0.3,2.7,0.8,5,3.7,7.5c3.6,3.1,4.8,3.4,8.5,2
	C601.6,349.7,603.3,347.9,603.3,346.2L603.3,346.2z"/>
<path d="M395.4,348.2c0.5-0.8-0.2-1.5-1.5-1.5s-2,0.7-1.5,1.5s1.2,1.5,1.5,1.5S394.8,348.9,395.4,348.2L395.4,348.2z"/>
<path d="M486.9,336.6c-0.8-3.2-1.3-3.4-5.4-1.9c-6.9,2.4-7,4-0.5,9.6l5.9,5.1l0.5-4.6C487.5,342,487.4,339.3,486.9,336.6
	L486.9,336.6z"/>
<path d="M1004.4,348.3c0.7-0.1,0.9-0.8,0.4-1.5s-4.7-1.8-9.4-2.4c-8.3-1-11.1,0-11.2,4.1C984.1,349.4,997.5,349.3,1004.4,348.3
	L1004.4,348.3z"/>
<path d="M475.6,345.1c-3.9-3.2-8.6-3.9-10.1-1.5c-0.5,0.8,1.4,2.1,4.1,2.9C404.9,461,409.1,456.9,475.6,345.1L475.6,345.1z"/>
<path d="M520.4,383.9c15.8-2.6,18.1-2.6,44.9-0.2c15.5,1.4,34.2,2.5,41.4,2.5c12.1,0,13.9-0.4,23.5-5.5c8.9-4.7,12.9-5.8,28.8-7.7
	c19.6-2.3,27.3-1.9,35.6,2.1c4.3,2,5,3.1,4.3,6c-0.8,3.2-0.4,3.6,3.7,3.6h4.6V282.2l-11.6-15.9c-6.4-8.8-12.5-16.3-13.6-16.7
	s-4.7,1.2-8,3.7l-6.1,4.4l8-0.7c5.2-0.4,8.4,0,9.2,1.1c1.5,2.4-4.5,8.7-9.5,9.9l-3.9,1l3.3,2.3c1.8,1.3,3.3,3.6,3.3,5.1
	c0,3.5-11.9,13.6-22.2,18.8c-4.2,2.1-8.7,5.1-9.9,6.5c-3.1,3.8-11,6.7-17.9,6.7c-3.3,0-7.5,1.2-9.6,2.7s-8.1,4.7-13.5,7.2
	s-16.8,8.7-25.1,13.8s-25.1,14-37.1,19.6c-17.8,8.4-24.3,10.7-35,12.3c-12.5,1.9-34,10.2-41.9,16.2c-2.6,2-2,2.2,6.1,2.4
	c5.6,0.2,11.1,1.1,16.5,2.4C497.1,387.7,497.1,387.7,520.4,383.9L520.4,383.9z"/>
<path d="M199.6,342.9c0.2-1,0.5-2,0.9-3c0.8-2,0.2-2.2-3.8-0.7c-5,1.7-5,4.4-0.1,4.4C198.3,343.5,199.7,343.3,199.6,342.9
	L199.6,342.9z"/>
<path d="M422.5,340.3c7.2-1.8,14.9-2.9,18.1-2.4c7.5,1,6-1.1-3.1-4.4c-4-1.5-13-5-20.2-7.9c-7.7-3.1-15.6-5.6-23.6-7.5
	c-5.9-1.2-13.1-3.5-16-5.1c-5.4-2.6-10.9-4.8-16.6-6.6c-11.3-3.8-23.3-10.4-37.4-20.5c-5.5-3.7-11.5-6.4-17.9-8.1
	c-6-1.6-11.8-3.9-17.3-6.9c-11.4-7-13.4-7.9-19.3-8.8c-3.7-0.6-9-3.6-15.1-8.4c-5.2-4.1-10.5-7.5-11.9-7.5
	c-3.7,0-16.2-8.4-19.2-12.9c-1.4-2.2-2.2-5.3-1.7-7.1c0.5-2-0.4-4.9-2.4-7.5c-2.6-3.6-2.9-4.7-1.2-6.7c1.6-1.5,3.7-2.4,5.9-2.5
	c3.5-0.1,3.2-0.5-2.6-3c-3.6-1.6-7.1-2.6-7.7-2.2s-6,7.1-11.9,14.9l-10.8,14.1l-1.1,51.4c-0.6,30.5-0.5,51.4,0.3,51.4
	c2.3-0.4,4.5-0.9,6.7-1.7c2.9-0.9,9.2-1.6,14-1.5s9.1-0.5,9.6-1.4s-0.8-1.6-3.3-1.6c-2.6,0-5.1-0.3-7.6-0.9
	c-4.1-1.1-6.2-6.5-3.3-8.4c3.5-2.2,25.4-1.6,29.1,0.8c1.9,1.2,6.5,2.6,10.2,3.2c5,0.9,9.8,2.4,14.4,4.4c12.7,5.8,29.8,7.5,77.7,7.6
	c42.4,0.1,44.4,0.3,50.3,3.5C395.6,344.3,406.4,344.4,422.5,340.3L422.5,340.3z"/>
<path d="M977.9,342.9c0-0.4-0.7-1.1-1.5-1.6s-1.5-0.2-1.5,0.7c0,0.9,0.7,1.6,1.5,1.6C977.2,343.6,977.9,343.3,977.9,342.9z"/>
<path d="M216.8,338.7c-1.6-1.7-4.6-2.7-8.3-2.7c-5.5,0-5.7,0.2-4,3c1.4,2.3,3.4,2.9,8.3,2.7C218.9,341.4,219.1,341.2,216.8,338.7
	L216.8,338.7z"/>
<g>
	<path d="M463.9,339c1.5-2.5-7.1-8.8-14.5-10.7c-11.4-2.9-24.5-10.8-36.2-21.9c-6.1-5.8-11-11.1-11-11.8c0-3.4,4.5-0.4,16.6,11.3
		s14.1,12.9,26,16.9c7.1,2.4,15.2,6.1,18,8.2c4.6,3.5,5.7,3.7,10.7,2.2c3-0.9,5.9-2.2,8.5-3.8c2.6-1.9,2.7-2.6,0.9-7.1
		c-6.4-15.4-45.5-32.8-72.8-32.5c-6.1,0.1-11-0.5-11-1.2s1.3-1.4,2.9-1.4c4,0,5.3-4.4,2.2-7.8c-1.4-1.6-6-4.5-10.3-6.5
		c-31.3-14.8-34.3-15.9-48-18.2c-7.9-1.4-15.8-2.5-17.6-2.5s-7.6-2.3-13.1-5.2c-5.9-3.1-12-5.7-18.2-7.9
		c-10.8-3.4-11.6-4.1-16.8-14.5c-3.2-6.3-5.5-8.9-8.4-9.7c-2.2-0.6-6.8-4.1-10.2-7.8c-5.5-6-6.9-6.8-12.7-6.8
		c-3.6,0-7.6,0.4-8.9,0.9c-4.7,1.8-0.6,3.6,8.2,3.6c8.4,0,12.6,1.7,9.2,3.8c-1,0.6-0.9,2.3,0.2,4.7c0.9,2.4,3.2,3.9,5.7,3.8
		c5,0,10,3.5,8.6,5.9c-0.8,1.3-1.9,1.3-4.1,0.1c-1.7-0.9-3.7-1.3-5.6-1.2c-1.4,0.2-2.8,0.1-4.1-0.5c-2.5-0.9-5-1.6-7.6-2l-6.1-1.1
		l6.8,7c3.9,4,7.7,6.7,8.9,6.2c1.6-0.6,1.9,0.1,1.2,2.8c-1.1,4.2,2.5,8.2,9.1,9.9c2.3,0.6,4.5,2,4.9,3c0.8,2.3-7.8,2.5-12.1,0.2
		c-3.8-2-6.1-0.2-2.4,1.9c1.9,1.2,3.7,2.6,5.3,4.2c2.1,1.9,4.7,3.1,7.5,3.7c2.7,0.5,8.2,3.3,12.4,6.3c7.8,5.6,18.4,10.7,19.6,9.4
		c0.4-0.4-2.1-2.6-5.5-4.9s-6.2-4.7-6.2-5.5c0-3,4.8-0.9,13.7,5.9c19.1,14.6,25.4,19,37.2,25.7c6.6,3.7,15.2,7.6,19,8.5
		c5.3,1.5,10.4,3.4,15.4,5.8c5.2,2.4,10.6,4.1,16.2,5c5.8,1,11.5,2.8,16.8,5.3c9.3,4.7,19.9,8.7,26.5,10.1c2.2,0.5,7,3.2,10.7,6.2
		C456.2,340.4,462,342,463.9,339L463.9,339z"/>
</g>
<path d="M344.3,276c-5.3-2-7.4-3.4-5.6-3.8c2.6-0.5,2.6-0.7,0.1-3.5c-5.6-6.1,4.3-1.3,13.8,6.8C358.2,280.3,355.7,280.4,344.3,276
	L344.3,276z"/>
<path d="M304.7,258.1c-5.5-2.6-12.3-5.7-15.2-7s-4.5-2.6-3.6-3c1.9-0.7,14.6,4.7,24.9,10.7C320.1,264.2,316.8,263.8,304.7,258.1
	L304.7,258.1z"/>
<path d="M330.6,260.5c-1.5-1.8-1.4-2.3,0.5-2.3c2.8,0,4.7,2.5,2.8,3.7C333.1,262.4,331.6,261.7,330.6,260.5L330.6,260.5z"/>
<path d="M287.9,255.2c0-1.9,3.1-1.9,6.1,0c1.8,1.2,1.4,1.5-1.9,1.5C289.8,256.7,287.9,256,287.9,255.2z"/>
<path d="M282.1,240c0.3-1,1.1-1.8,1.7-1.7c1.8,0.2,1.5,2.3-0.5,2.9C282.3,241.6,281.8,241,282.1,240L282.1,240z"/>
<path d="M589.5,330.5c-0.2-2.7-1.3-5.2-3.1-7.2c-1.7-1.8-2.9-4.8-2.7-6.5c0.4-3.3-6.9-14.4-9.5-14.4c-2.9,0-1.4,8.8,2.5,14.5
	c3.7,5.4,3.7,5.7,0.8,4.9c-1.7-0.5-3.1-0.2-3.1,0.6s1,1.4,2.3,1.4c1.3,0,2.3,0.6,2.3,1.3c0,2.4,6.3,9.3,8.5,9.3
	C588.7,334.4,589.5,332.8,589.5,330.5L589.5,330.5z"/>
<path d="M640.5,330.7c4.8-3.2,4.4-5.5-1.6-8.5c-3.3-1.8-6.6-3.8-9.6-6c-4.8-3.4-5-3.8-2.4-5.7c3.5-2.5,2.1-4-3.9-4.2
	c-3.7-0.1-4.6,0.5-4.6,3c-0.2,2.2-1,4.3-2.4,6.1c-2.2,2.8-2.3,2.6-1.8-2.8c0.6-6.6-0.6-7.2-3.9-2.1c-2.1,3.1-3.5,3.6-10.6,3.4
	c-7.6-0.2-8.1,0-7.6,3c0.4,2.1,2.4,3.8,5.8,4.8c3,0.9,5.2,1,5.2,0.2c0.1-0.9,0.9-1.5,1.7-1.4c1.1,0,1.4,2.1,0.9,6
	c-0.8,5.6-0.5,6.1,3.2,6.7C618,334.9,636.5,333.3,640.5,330.7L640.5,330.7z"/>
<path d="M617.8,328.4c-2.1-2.3-2.3-3.6-1-6c1-1.9,1.5-4,1.7-6.2c0-3.8,2.8-4.2,4.1-0.5c1.2,2.5,2.8,4.9,4.6,7
	c3.5,4.3,3.6,7.8,0.1,4.3c-2.7-2.7-4.2-2.2-4.2,1.2C623,332.1,621.2,332.2,617.8,328.4L617.8,328.4z"/>
<path d="M656.9,331.1c6.6-2.7,11-3.2,24.2-3l16.1,0.2l10.9-8.6c6-4.7,10.5-9.2,10.1-9.9c-1.5-2.5-13.2-4.6-19.5-3.6
	c-4,0.7-7.9,1.8-11.6,3.4c-5.3,2.3-5.3,2.3-1.5,3.4l3.8,1.1l-3.8,0.9c-2.1,0.5-9.5,1.9-16.5,3.2c-13.4,2.4-18.3,4.9-15.6,7.6
	s1.9,6-1.4,5.1c-1.7-0.4-3.3,0.1-3.8,1.4C647.4,335,647.4,335,656.9,331.1L656.9,331.1z"/>
<polygon points="568.8,329.7 565.7,326.5 560.5,329.7 555.3,332.9 571.9,332.9 568.8,329.7 "/>
<path d="M577.1,329.9c-2.1-3.4-3.6-2.9-2.2,0.6c0.5,1.3,1.6,2.4,2.5,2.4S578.3,331.8,577.1,329.9L577.1,329.9z"/>
<path d="M601.8,329.4c0-2.6-0.9-3.5-3.8-3.8c-3.1-0.3-3.8,0.4-3.8,3.5s0.8,3.8,3.8,3.8S601.7,332.1,601.8,329.4L601.8,329.4z"/>
<path d="M542.4,327.6c-2.4-2.4-3.4-2.7-4.9-1.1s-1.5,2.2,0.3,3.2c1.5,0.8,3.3,1.2,5,1.1C545.2,330.7,545.2,330.5,542.4,327.6
	L542.4,327.6z"/>
<path d="M556,327.3c0.3-0.3,0.2-1-0.3-1.5s-2.5,0.2-4.5,1.7l-3.5,2.6l3.8-1.1C553,328.6,554.5,328.1,556,327.3L556,327.3z"/>
<path d="M237.1,326c-3.8-2.9-8.5-2.9-8.5,0c0,1.6,1.6,2.3,5.7,2.2C239.7,328.2,239.8,328,237.1,326z"/>
<path d="M534.6,324.3c2.6-1.5,4.5-3.5,4.2-4.3c-0.8-2.5-18-8.5-26-9.1c-4.1-0.3-8-1.4-8.6-2.5c-0.9-1.4-3.9-1.6-11.5-0.9
	c-5.7,0.6-11,1.5-11.7,1.9s2.5,4.9,7.4,9.8l8.8,8.9l16.4-0.5C525.9,327.2,530.9,326.4,534.6,324.3L534.6,324.3z"/>
<path d="M224.6,325.4c0.4-0.7-1.7-1.8-4.9-2.3c-8.3-1.4-11-1.2-11,0.7c0,1,1.4,1.3,3.4,0.8c1.9-0.5,3.9-0.3,5.7,0.6
	C220.8,327.1,223.6,327.2,224.6,325.4L224.6,325.4z"/>
<path d="M545.3,320.5c-0.9-1.7-2.1-2.8-2.5-2.4c-1.3,1.3,0.8,5.5,2.6,5.5C546.5,323.7,546.5,322.7,545.3,320.5L545.3,320.5z"/>
<path d="M553,316.9c-0.2-1.3-1-2.4-2.3-2.9c-2.3-0.9-3.3,3.5-1.3,5.6C550.8,321,553,319.3,553,316.9L553,316.9z"/>
<path d="M566.7,313c0-2.6-3-7.5-4.6-7.5c-2.1,0-1.8,5.1,0.4,7.3C564.6,314.9,566.7,315.1,566.7,313L566.7,313z"/>
<path d="M542.5,306.5c-1.2-1.2-1.7-0.8-1.7,1.4c0,4,2.1,6.2,2.8,2.8C543.9,309.2,543.5,307.7,542.5,306.5z"/>
<path d="M644.4,310c0-0.8-0.3-1.5-0.7-1.5s-1.1,0.7-1.6,1.5s-0.2,1.5,0.7,1.5C643.6,311.6,644.4,310.9,644.4,310
	C644.4,310,644.4,310,644.4,310z"/>
<path d="M642.1,305.4c3.9-4.3,2-5.2-3.8-1.8c-3.2,2-4.2,3.2-2.8,3.8C638.8,308.8,639.2,308.6,642.1,305.4z"/>
<path d="M655,303.9c0-0.8-0.3-1.5-0.7-1.5s-1.1,0.7-1.6,1.5s-0.2,1.5,0.7,1.5C654.3,305.4,655,304.7,655,303.9z"/>
<path d="M552.5,299c-0.5-1.2-0.8-0.9-0.9,0.9c-0.1,1.6,0.3,2.5,0.8,2C552.9,301.1,553,300,552.5,299z"/>
<path d="M540.8,299.3c0-0.9-0.7-1.5-1.6-1.5c-0.9,0-1.2,0.7-0.7,1.5s1.2,1.5,1.6,1.5S540.8,300.2,540.8,299.3L540.8,299.3z"/>
<path d="M609.5,296.5c1.8-2.2,4.3-4,5.7-4c1.6-0.2,2.8-1.4,3-3c0.3-1.7,1.1-3.3,2.3-4.6c1-0.8,1.8-3.4,1.8-5.8
	c0-3.3-0.6-4.1-2.7-3.6c-1.6,0.4-3.3-0.5-4.3-2.3c-1.9-3.6-0.8-5.4,2-3.2s8.8,3.4,8.8,1.8c0-0.8,1.3-1.4,3-1.4c3.2,0,7-5.4,4.8-6.7
	c-0.7-0.5-2.5,0.5-4,2.2c-3.2,3.6-5.3,3.9-5.3,0.7c0-1.3,0.7-2.3,1.5-2.3s1.4-3.6,1.3-8c-0.1-3.6,0-7.2,0.4-10.8
	c0.8-3.6-7.3-10.3-9-7.5c-1.5,2.4-6.9,3.1-7.9,1.1c-0.4-0.8,1.1-1.7,3.3-2c5.3-0.6,8.6-8.5,5.2-12.4c-1.3-1.5-1.8-4.1-1.3-6.6
	c1-4.9-1-5.4-4.8-1.2c-2.2,2.4-4,2.8-9.2,2.1c-3.8-0.5-7.8-0.1-9.9,1c-2.5,1.3-3.9,1.4-5.1,0.2c-0.9-0.9-3.6-1.7-6-1.7
	c-3.5,0-4.8,1-6.5,5.3c-1.2,2.7-1.9,5.6-2.2,8.6c0,3.2,0.3,3.3,14.1,2.2c7.8-0.6,15.6-1.4,17.5-1.9s3.4-0.1,3.4,0.7
	c0,2-5.3,3.3-13.4,3.4c-3.6,0-6.2,0.6-5.7,1.4s-2.9,1-7.9,0.6c-7.9-0.7-9.1-0.4-12.3,3c-1.9,2.1-4.5,6.9-5.6,10.7
	c-2,6.5-1.9,7.2,1.2,11.2c2.7,3.4,3.3,6.2,3.3,14.9c0,9.2,0.4,10.7,2.9,11.2s2.8-0.1,2-5.3c-0.5-3.1-1.1-6.2-2-9.2
	c-0.7-2.5-0.1-3.8,2.5-5.2s3.7-1.4,4.1-0.1c0.5,1.1,1.6,1.7,2.7,1.7c1.2,0,2.2,0.7,2.2,1.5s-1.7,1.5-3.8,1.5c-4.4,0-5.3,4.1-1.2,5.6
	c1.4,0.5,2.6,1.2,3.6,2.3c0.5,0.7,2.8,0.6,5-0.3c6.1-2.3,20-2,22.1,0.5s-1.3,4.4-4.6,2.3c-2.8-1.8-6-1.8-6,0c0,0.7,1.7,1.8,3.8,2.3
	s3.8,2,3.8,3.2c0,2.7-0.8,2.8-4.5,0.8c-1.6-0.8-5.9-1.1-9.6-0.6c-6.7,0.9-6.8,1-5.2,5.2c1.5,4,2.2,4.2,10.5,4.2c7.8,0,9.3-0.5,12-4
	L609.5,296.5z"/>
<path d="M621.4,301.9c-0.5-0.8-2.2-1-3.9-0.6c-2.7,0.7-3,0-3-5.4c0-3.4,0.7-6.6,1.5-7.1c1.5-0.9,1.6-9.9,0.1-9.9
	c-0.4,0-2.3,1.5-4.2,3.2c-4.9,4.6-10.8,2.9-13.7-4.1c-2.1-5.1-2.1-5.5,1.2-8.2c2.8-2.2,5.1-2.7,11.1-2c8.8,1,12,2.9,10.5,6.4
	c-1.8,4.1-1.5,19.8,0.3,20.6c1,0.4,4.3,0.1,7.4-0.6c5.1-1.1,6.1-0.9,9.2,2.8c2.8,3.2,3,4.2,1.3,4.6c-1.4,0.2-2.9-0.1-4.1-1
	c-2.1-1.7-10.2-0.6-10.2,1.4C625.2,303.7,622.6,303.7,621.4,301.9L621.4,301.9z"/>
<path d="M599.5,265.9c-0.5-0.8-0.2-1.9,0.7-2.4c0.9-0.5,1.6,0.1,1.6,1.4C601.7,267.7,600.8,268.1,599.5,265.9L599.5,265.9z"/>
<path d="M578.9,264.5c0-1.9,4.3-3.4,5.3-1.8c0.4,0.7-0.3,1.7-1.6,2.2C579.4,266.1,578.9,266.1,578.9,264.5z"/>
<path d="M604.1,254.6c-2.8-5.8-5-8.5-7.7-9.2c-4.4-1.1-5-3.9-0.8-3.9c1.6,0,3.2-0.9,3.6-1.9s1.5,0,2.4,2.4c1.3,3.4,2.3,4.1,4.4,3.1
	c3.1-1.5,18.2-1.5,19.6-0.1c1.7,1.7-7,11.6-10.9,12.6c-2.1,0.5-3.7,1.9-3.7,3C610.9,265.2,607.8,262.4,604.1,254.6L604.1,254.6z"/>
<path d="M598.1,253.9c-0.7-1.1-0.8-2.3-0.3-2.9c1.4-1.4,2.8,0.6,2.1,2.9C599.4,255.4,599,255.4,598.1,253.9L598.1,253.9z"/>
<path d="M639.6,294.5c2.4-4.9,2.7-6.7,1.3-7.6c-2.4-1.5-5.7-1.6-5.7,0c0.3,1.2,1,2.4,1.9,3.2c1.5,1.6,1.5,2.1,0,2.7
	c-1.7,0.6-2.9,8.1-1.3,8.1C636.2,300.9,637.9,298,639.6,294.5L639.6,294.5z"/>
<path d="M546.9,296.3c0-0.9-0.8-1.5-1.6-1.5c-0.9,0-1.2,0.7-0.7,1.5s1.2,1.5,1.6,1.5S546.9,297.1,546.9,296.3z"/>
<path d="M572.8,297.2c0-0.4-0.7-1.1-1.5-1.6c-0.8-0.5-1.5-0.2-1.5,0.7c0,0.9,0.7,1.6,1.5,1.6C572.1,297.8,572.8,297.5,572.8,297.2
	L572.8,297.2z"/>
<path d="M580.4,294.2c0-0.4-0.7-1.1-1.5-1.6c-0.8-0.5-1.5-0.2-1.5,0.7c0,0.9,0.7,1.6,1.5,1.6C579.8,294.8,580.4,294.5,580.4,294.2z"
	/>
<path d="M652,292.7c-0.2-1.5-0.9-2.9-2.1-3.8c-1.6-1.3-2.4-0.9-3.8,2.1c-1.6,3.5-1.4,3.8,2,3.8C650.4,294.8,652,293.9,652,292.7
	L652,292.7z"/>
<path d="M549.2,288.6c1.1-3.6,0.2-5.2-2.2-3.8c-2,1.2-2.2,6.9-0.2,6.9C547.6,291.8,548.7,290.4,549.2,288.6z"/>
<path d="M594.2,285.7c0-0.8-1-1.5-2.2-1.5c-1.2,0-2.4,0.6-3.1,1.5c-0.5,0.8,0.5,1.5,2.2,1.5C592.7,287.2,594.1,286.5,594.2,285.7
	L594.2,285.7z"/>
<path d="M659.6,286.1c0-0.6-3.3-2.7-7.2-4.5c-5.3-2.5-7.4-2.9-8.3-1.5c-1.8,2.9-1.4,4.1,0.9,3.2c1.2-0.5,4.1,0.2,6.5,1.5
	C656.2,287.3,659.7,287.9,659.6,286.1L659.6,286.1z"/>
<path d="M554.6,281.9c0-0.4-1.5-1.5-3.4-2.5c-3.1-1.6-3.2-1.6-1.3,0.7C551.7,282.4,554.6,283.5,554.6,281.9L554.6,281.9z"/>
<path d="M665.8,280.5c0-1.2-1.7-2.5-3.8-3.1c-3.8-1-5.1-4.5-2.3-6.2c2.4-1.5,1.8-6.3-1-8.6c-2.3-1.9-2.4-1.7-1.5,2
	c0.5,2.8,0.3,5.6-0.6,8.3c-1.4,3.7-1.1,4.6,1.9,6.9C662.7,283.1,665.8,283.4,665.8,280.5L665.8,280.5z"/>
<path d="M538.5,279.8c0.5-0.7-0.1-2.1-1.3-3.1c-1.8-1.5-2-1.2-1.3,1.4C536.7,281.4,537.2,281.7,538.5,279.8L538.5,279.8z"/>
<path d="M636.1,275c-0.5-0.9-1.4-1.4-2.5-1.5c-0.8,0-1.1,0.7-0.6,1.5c0.5,0.9,1.5,1.4,2.5,1.5C636.3,276.5,636.5,275.8,636.1,275
	L636.1,275z"/>
<path d="M642.1,271.4c-1-2.5-3.7-3.5-3.7-1.3c0,1.5,3.4,5,4.1,4.3C642.8,274.2,642.6,272.8,642.1,271.4L642.1,271.4z"/>
<path d="M652.7,272.6c1.4-3.7,1.1-8.2-0.6-8.2c-0.8,0-1.5,1.3-1.5,2.9c0,1.8-0.3,3.6-0.9,5.3c-0.5,1.3-0.2,2.4,0.6,2.4
	S652.1,273.9,652.7,272.6L652.7,272.6z"/>
<path d="M540.4,268.6c-0.4-1-0.8-0.2-0.8,1.9s0.3,3,0.8,1.9C540.8,271.1,540.8,269.7,540.4,268.6L540.4,268.6z"/>
<path d="M551.1,270.2c-0.5-1.2-0.8-0.9-0.9,0.9c-0.1,1.6,0.3,2.5,0.8,2C551.5,272.2,551.5,271.1,551.1,270.2z"/>
<path d="M559.2,272c0-0.8-0.7-1.5-1.5-1.5s-1.5,0.7-1.5,1.5c0,0.8,0.7,1.5,1.5,1.5C558.5,273.5,559.1,272.7,559.2,272
	C559.1,271.9,559.1,271.9,559.2,272L559.2,272z"/>
<path d="M645.5,263.4c-0.4-0.4-2.4-0.5-4.3-0.2l-3.6,0.6l3.8,1.6C644.8,266.9,647.6,265.5,645.5,263.4L645.5,263.4z"/>
<path d="M662.7,260.5c-1.1-1.3-2.2-2-2.6-1.6c-1.2,1,1,3.9,2.8,3.9C663.9,262.8,663.8,261.9,662.7,260.5L662.7,260.5z"/>
<path d="M543.1,257c-0.5-0.5-1.7,0-2.7,1c-1.5,1.5-1.3,1.7,0.8,0.9C542.8,258.3,543.6,257.5,543.1,257z"/>
<path d="M654.2,258.3c1.5-2.5-1.8-3.2-3.8-0.9c-1.5,1.8-1.4,2.3,0.5,2.3C652.2,259.8,653.4,259.3,654.2,258.3L654.2,258.3z"/>
<path d="M643.9,256.5c-1.8-1.2-3.2-2.9-4.1-4.9c-1.3-3.1-1.3-3.1-1.4,0.6c-0.1,4.8,0.9,6,5.1,5.9C646.5,258.1,646.5,258,643.9,256.5
	L643.9,256.5z"/>
<path d="M656.2,251c7-1,6.1-3.1-1.5-3.7c-5.5-0.4-6.4-0.9-6-3.5c1.2-7,0.9-10.4-0.8-11c-1-0.3-2,0.8-2.3,2.6c-0.7,4.3-3.4,4.1-4-0.3
	c-0.8-5.4-3-6.8-5.5-3.4c-3.2,4.3-3,5,3.1,7.5c5,2.1,5.4,2.6,4.4,7.1c-1.2,5.2,1.3,8.2,5.4,6.4C651.3,251.8,653.7,251.3,656.2,251
	L656.2,251z"/>
<path d="M547.7,250.6c1.2-1.9-0.8-1.9-3.8,0c-2,1.3-1.9,1.5,0.3,1.5C545.5,252.2,546.8,251.6,547.7,250.6z"/>
<path d="M532.8,243.6c-1.5-1.5-5.7,2.4-5.7,5.3c0,2,0.7,1.8,3.3-0.9C532.3,246.1,533.3,244.1,532.8,243.6L532.8,243.6z"/>
<path d="M253.5,245.4c-0.5-1.1-0.1-2.4,0.8-3.1c3.4-2.1,0.3-7.5-3.5-6c-2.7,1-2.2,5.4,0.9,9.4C253.8,248.2,254.5,248.1,253.5,245.4z
	"/>
<path d="M960.7,245.3c0.4-1.2,1.5-2.1,2.7-2.3c1,0,4.2-2.1,7-4.6s4.7-4.6,4.3-4.6c-2.8,0-17.3,9.2-17.7,11.2
	C956.3,248.2,959.5,248.4,960.7,245.3z"/>
<path d="M539.3,243c0-0.8-0.3-1.5-0.7-1.5s-1.1,0.7-1.6,1.5s-0.2,1.5,0.7,1.5C538.5,244.5,539.3,243.8,539.3,243z"/>
<path d="M243.8,240.1c0-1.6-15.6-11-16.6-10c-1.2,1.2,3.4,5.5,8.8,8.4C242.3,241.7,243.8,242,243.8,240.1L243.8,240.1z"/>
<path d="M557.9,239.6c-1.4-1.4-2.2-1.4-3.7,0s-1,1.8,1.8,1.8C558.9,241.5,559.3,241.1,557.9,239.6z"/>
<path d="M657.2,236c1.2-3.1,0.1-4.8-5.6-8.3c-2.5-1.6-6.1-5.8-7.9-9.4c-4.5-9-28.2-25.6-28.2-19.7c0,1.7,11.5,11,17.4,13.9
	c2.5,1.3,5.6,4.8,7,8.1c1.6,3.6,4.3,6.5,7.8,8.4c3.2,1.6,5.3,3.9,5.6,6C653.8,239,655.8,239.5,657.2,236L657.2,236z"/>
<path d="M630.4,233c2.2-4.9,2.3-4.8-1.1-5.7c-3.6-1-7,5.2-4.3,7.8C627.5,237.7,628.5,237.3,630.4,233L630.4,233z"/>
<path d="M542.6,228.8c1.6-0.6,1.5-1.1-0.3-2.4c-1.8-1.3-2.9-0.9-4.9,1.6c-1.5,1.8-2.7,4.3-2.7,5.6c0,1.9,0.6,1.8,3-0.8
	C539.1,231.1,540.8,229.8,542.6,228.8L542.6,228.8z"/>
<path d="M1007.9,202.4c-0.3-0.4-5.6-0.4-11.6-0.2l-11,0.5l11.2,14.5l11.2,14.5l0.4-14.3C1008.4,209.4,1008.3,202.7,1007.9,202.4z"/>
<path d="M241.5,227.8c-0.5-0.9-1.4-1.4-2.5-1.5c-0.8,0-1.1,0.7-0.6,1.5c0.5,0.9,1.4,1.4,2.5,1.5C241.8,229.3,242,228.6,241.5,227.8
	L241.5,227.8z"/>
<path d="M563.7,226.2c0-1.9-3.1-1.9-6.1,0c-1.8,1.1-1.4,1.5,1.9,1.5C561.8,227.7,563.7,227.1,563.7,226.2L563.7,226.2z"/>
<path d="M201.6,212.4l10.3-13.6h-23v13.7c0,7.5,0.5,13.7,1.1,13.6S195.9,219.9,201.6,212.4L201.6,212.4z"/>
<path d="M626.1,219.4c0-6-4.3-11.4-9.1-11.4c-1.7,0-3-0.8-3-1.7c0-2.4-9.3-0.4-12.2,2.7c-2.1,2.2-2,2.3,1,0.7c4-2,9.6-2.2,9.6-0.3
	c0,0.7-1.8,1.8-4,2.4c-2.2,0.6-3.6,1.4-3.1,1.9s3.7,0,7-1.1c7.5-2.5,11.5-0.2,10,5.6c-1,3.9,0,6.5,2.3,6.5
	C625.5,224.7,626.1,222.3,626.1,219.4L626.1,219.4z"/>
<path d="M563.5,220.7c0.3-0.3-1.8-0.5-4.9-0.5c-3,0-5.9,0.6-6.4,1.4C551.5,222.9,562,222.1,563.5,220.7z"/>
<path d="M575,215.8c-1.2-1.2-5.3,3.2-5.2,5.7c0,1.9,0.8,1.5,2.9-1.3C574.3,218.1,575.3,216.1,575,215.8L575,215.8z"/>
<path d="M635.3,220.1c-1.4-2.6-6.1-4.4-6.1-2.4c0,2.8,2.3,5.5,4.8,5.5S636.6,222.7,635.3,220.1L635.3,220.1z"/>
<path d="M237.7,220.5c0-0.6-3.8-2.6-8.4-4.4c-6.4-2.5-8.4-2.8-8.4-1.2c0,3.2,6.2,6.8,11.8,6.8C235.4,221.7,237.7,221.2,237.7,220.5
	L237.7,220.5z"/>
<path d="M947.6,215.6c0.8-1.7,1.5-3.4,2.1-5.2c0.7-2.1,1.4-2.5,2.6-1.3s3.6,1,8.3-0.6c3.7-1.3,6.7-2.4,6.7-2.6s-4.3,0-9.5,0.3
	c-7.9,0.5-10.3,1.4-13.9,4.9c-2.5,2.4-3.9,5-3.3,6C942,219.3,946.1,218.5,947.6,215.6L947.6,215.6z"/>
<path d="M545.3,300.7c9.4-3.1,41-99.8,45.2-98c4,1.6,5,1.6,5.6,0c0.8-2.1-5-5.4-9.5-5.4c-4.4,0-21.2,6.1-23.2,8.5
	c-2.4,2.9-1.1,2.7,11.5-1.5L545.3,300.7z"/>
<path display="none" d="M913.2,186.2c-5.9-7.4-32.8-33.6-47.5-46.3C800.5,83.3,719.3,44.3,633.5,28.4c-38.7-7.2-44.7-7.7-92.2-7.7
	c-40.4,0-49.2,0.4-67.8,3.4c-65.4,10.3-113.1,25.4-164.3,51.8c-48.5,25.1-95.4,60.2-131.2,98.2l-13.2,14.1l86.6,1.2
	c47.6,0.6,134.9,0.8,194,0.4s109.4-0.7,112-0.7s66.6,0.6,142.4,1.2s155.9,1.2,178,1.4l40.1,0.4L913.2,186.2z"/>
</svg>
